<svg width="18" height="19" fill="none" xmlns="http://www.w3.org/2000/svg"><path d="M11.136 9.44c.35 0 .633-.255.633-.568a.536.536 0 00-.185-.401l-.305-.273.305-.273a.536.536 0 00.185-.4c0-.314-.284-.568-.633-.568-.166 0-.33.06-.447.166l-1.2 1.075 1.2 1.075c.118.106.28.167.447.167zM8.51 8.198L7.311 7.123a.676.676 0 00-.448-.166c-.348 0-.632.254-.632.567 0 .152.065.295.185.402l.305.272-.305.273a.536.536 0 00-.185.401c0 .313.284.568.632.568.167 0 .33-.06.448-.166l1.2-1.076zm-.262 2.483c.167 0 .33-.06.448-.166L9 10.243l.304.271a.676.676 0 00.448.167c.349 0 .633-.254.633-.568a.536.536 0 00-.186-.4L9 8.636 7.8 9.712a.537.537 0 00-.185.401c0 .314.284.568.633.568zm3.867-1.015c-.242.24-.59.394-.979.394h1.958a1.39 1.39 0 01-.979-.394zm-7.209.394c-.023 0-.044-.004-.066-.006v.006h.066zm6.23 0c-.022 0-.043-.004-.065-.006v.006h.065z" fill="#5C626D"/><path d="M13.16 10.054c-.022.002-.043.006-.066.006h.066v-.006zm-6.23 0c-.023.002-.044.006-.066.006h.065v-.006zM4.906 9.44c.349 0 .632-.255.632-.568a.536.536 0 00-.185-.401l-.305-.273.306-.273a.536.536 0 00.184-.4c0-.314-.283-.568-.632-.568-.167 0-.33.06-.448.166l-1.2 1.075 1.2 1.075c.118.106.28.167.448.167zm10.629-3.558l-.304.272-.304-.272a.676.676 0 00-.448-.166c-.35 0-.633.254-.633.567 0 .152.066.294.185.401l1.2 1.075 1.2-1.075a.537.537 0 00.184-.4c0-.314-.284-.568-.632-.568-.167 0-.33.06-.448.166zM1.57 9.712a.537.537 0 00-.185.401c0 .314.283.568.632.568.167 0 .33-.06.448-.166l.304-.272.304.271a.676.676 0 00.448.167c.349 0 .633-.254.633-.568a.536.536 0 00-.185-.4l-1.2-1.076-1.2 1.075zm4.315-.046a1.39 1.39 0 01-.98.394h1.958c-.389 0-.736-.154-.978-.394zm8.856-1.468l-1.2-1.075a.676.676 0 00-.447-.166c-.349 0-.633.254-.633.567 0 .152.066.295.186.402l.305.272-.306.273a.536.536 0 00-.185.401c0 .313.284.568.633.568.167 0 .33-.06.448-.166l1.2-1.076zM9.304 5.882L9 6.154l-.304-.272a.676.676 0 00-.448-.166c-.349 0-.633.254-.633.567 0 .152.066.294.186.401L9 7.76l1.2-1.075a.537.537 0 00.185-.4c0-.314-.284-.568-.633-.568-.167 0-.33.06-.448.166zM3.61 18.13c-.05 0-.099-.004-.148-.007v.627h11.076v-.627c-.05.003-.098.006-.148.006H3.61zm11.967-4.656h-.692v-.93h-.693v.93H13.5v-.93h-.692v.93h-.693v-.93h-.692v.93h-.692v-.93h-.692v.93h-.693v-.93h-.692v.93h-.692v-.93h-.693v.93h-.692v-.93h-.692v.93h-.693v-.93H4.5v.93h-.692v-.93h-.693v.93h-.692v-.93h-.996l.2 1.55h1.488v.622H1.708l.08.62h1.327v.62H1.868l.02.15a1.5 1.5 0 00.535.978v-.506h.692v.86a1.9 1.9 0 00.495.07h.198v-.93H4.5v.93h.692v-.93h.693v.93h.692v-.93h.692v.93h.693v-.93h.692v.93h.692v-.93h.693v.93h.692v-.93h.692v.93h.692v-.93h.693v.93h.692v-.93h.692v.93h.198c.172 0 .337-.028.495-.07v-.86h.692v.507c.293-.248.491-.587.535-.974l.02-.154h-1.247v-.62h1.327l.08-.621h-1.407v-.621h1.487l.2-1.552h-.995v.931zm-9.692 2.483H3.808v-.62h2.077v.62zm0-1.242H3.808v-.62h2.077v.62zm2.769 1.242H6.577v-.62h2.077v.62zm0-1.242H6.577v-.62h2.077v.62zm2.77 1.242H9.345v-.62h2.077v.62zm0-1.242H9.345v-.62h2.077v.62zm2.768 1.242h-2.077v-.62h2.077v.62zm0-1.242h-2.077v-.62h2.077v.62zm1.791-3.413c-.273 0-.533-.073-.752-.21-.22.137-.48.21-.752.21-.5 0-.932-.253-1.157-.62H10.91c-.226.367-.657.62-1.157.62-.273 0-.533-.073-.752-.21-.22.137-.48.21-.752.21-.5 0-.931-.253-1.157-.62H4.678a1.35 1.35 0 01-1.157.62 1.42 1.42 0 01-.752-.21c-.219.137-.479.21-.752.21-.5 0-.931-.253-1.156-.62H.346v1.24h17.308v-1.24h-.515c-.225.367-.656.62-1.156.62zm1.527-3.104l.305-.273a.536.536 0 00.185-.4c0-.314-.284-.568-.633-.568-.166 0-.33.06-.447.166l-1.2 1.075 1.2 1.075c.118.106.28.167.447.167.35 0 .633-.255.633-.568a.536.536 0 00-.185-.401l-.305-.273zM2.77 7.76l1.199-1.076a.537.537 0 00.185-.4c0-.314-.284-.568-.633-.568-.166 0-.33.06-.447.166l-.305.272-.304-.272a.676.676 0 00-.448-.166c-.349 0-.632.254-.632.567 0 .152.065.294.185.401l1.2 1.075zM1.08 9.274l1.2-1.076-1.2-1.075a.676.676 0 00-.447-.166c-.35 0-.633.254-.633.567 0 .152.066.295.185.402l.305.272-.305.273A.536.536 0 000 8.872c0 .313.284.568.633.568a.67.67 0 00.447-.166zm1.519-4.059C3.66 2.9 6.174 1.37 9 1.37c2.826 0 5.34 1.529 6.401 3.844.179-.079.376-.12.582-.12.039 0 .075.007.114.01C14.97 2.512 12.155.75 9 .75c-3.148 0-5.972 1.763-7.099 4.355.04-.003.077-.01.116-.01.205 0 .403.041.582.12zm11.88 5.466c.166 0 .33-.06.447-.166l.305-.272.304.271a.676.676 0 00.447.167c.35 0 .633-.254.633-.568a.536.536 0 00-.185-.4l-1.2-1.076-1.199 1.075a.536.536 0 00-.185.401c0 .314.284.568.633.568z" fill="#5C626D"/></svg>