<svg width="68" height="68" fill="none" xmlns="http://www.w3.org/2000/svg"><path d="M34 0C15.252 0 0 15.252 0 34c0 18.748 15.252 34 34 34 18.748 0 34-15.252 34-34C68 15.252 52.748 0 34 0zm0 66.123C16.288 66.123 1.877 51.713 1.877 34 1.877 16.288 16.287 1.877 34 1.877c17.712 0 32.123 14.41 32.123 32.123 0 17.712-14.41 32.123-32.123 32.123z" fill="#5C626D"/><path d="M34 7.937C19.63 7.937 7.936 19.629 7.936 34 7.936 48.372 19.63 60.064 34 60.064S60.064 48.372 60.064 34C60.064 19.63 48.37 7.937 34 7.937zm0 50.25C20.664 58.187 9.813 47.337 9.813 34 9.813 20.664 20.663 9.813 34 9.813c13.337 0 24.187 10.85 24.187 24.187 0 13.337-10.85 24.187-24.187 24.187z" fill="#5C626D"/><path d="M36.881 29.03V15.56a2.884 2.884 0 00-2.88-2.88 2.884 2.884 0 00-2.882 2.88v13.46a5.771 5.771 0 00-2.648 3.435l-7.325 5.484a4.49 4.49 0 00-1.772 2.989c-.17 1.2.135 2.389.858 3.345a4.486 4.486 0 002.975 1.766 4.486 4.486 0 003.36-.853l7.27-5.444c.055.002.11.01.163.01A5.759 5.759 0 0039.752 34a5.763 5.763 0 00-2.87-4.97zm-3.885-13.47c0-.545.46-1.004 1.004-1.004s1.005.46 1.005 1.004v12.782a5.96 5.96 0 00-2.01 0V15.56zm-7.554 28.124a2.624 2.624 0 01-1.966.498 2.624 2.624 0 01-1.743-1.036 2.609 2.609 0 01-.5-1.953c.1-.705.468-1.325 1.037-1.75l6.057-4.535a5.813 5.813 0 003.15 4.256l-6.035 4.52zM34 37.875c-.11 0-.22-.006-.368-.025-1.967-.173-3.507-1.864-3.507-3.85a3.895 3.895 0 012.314-3.553A3.808 3.808 0 0134 30.124c.555 0 1.08.108 1.562.323A3.893 3.893 0 0137.876 34 3.88 3.88 0 0134 37.875z" fill="#5C626D"/></svg>