<svg width="17" height="18" fill="none" xmlns="http://www.w3.org/2000/svg"><path d="M8.5.007C3.813.007 0 3.82 0 8.507c0 4.687 3.813 8.5 8.5 8.5 4.687 0 8.5-3.813 8.5-8.5 0-4.687-3.813-8.5-8.5-8.5zm0 16.53c-4.428 0-8.03-3.602-8.03-8.03C.47 4.079 4.071.477 8.5.477c4.428 0 8.03 3.602 8.03 8.03 0 4.428-3.602 8.03-8.03 8.03z" fill="#5C626D"/><path d="M8.5 1.991a6.523 6.523 0 00-6.516 6.516A6.523 6.523 0 008.5 15.023a6.524 6.524 0 006.516-6.516A6.523 6.523 0 008.5 1.99zm0 12.563a6.054 6.054 0 01-6.047-6.047A6.054 6.054 0 018.5 2.46a6.054 6.054 0 016.047 6.047A6.054 6.054 0 018.5 14.554z" fill="#5C626D"/><path d="M9.22 7.264V3.897a.721.721 0 00-1.44 0v3.365a1.44 1.44 0 00-.662.859L5.287 9.49a1.131 1.131 0 00-.229 1.584 1.122 1.122 0 00.909.454c.243 0 .478-.078.675-.225l1.817-1.362c.014 0 .028.003.041.003a1.44 1.44 0 001.438-1.438 1.44 1.44 0 00-.718-1.243zm-.97-3.367c0-.136.115-.251.251-.251s.251.115.251.25v3.196a1.49 1.49 0 00-.502 0V3.897zm-1.89 7.031a.656.656 0 01-.492.124.656.656 0 01-.436-.258.652.652 0 01-.125-.489.656.656 0 01.26-.437l1.514-1.134c.075.465.377.862.787 1.064l-1.508 1.13zM8.5 9.476a.97.97 0 01-.948-1.167.974.974 0 01.558-.69.952.952 0 01.39-.081c.139 0 .27.027.39.08a.97.97 0 01-.39 1.857z" fill="#5C626D"/></svg>