<svg width="98" height="69" fill="none" xmlns="http://www.w3.org/2000/svg"><path d="M42.956 38.495c-7.64-1.441-13.658 3.926-16.564 7.254a.994.994 0 00.07 1.374.924.924 0 001.333-.074c2.642-3.024 8.085-7.912 14.823-6.642 3.498.66 4.85 3.941 4.948 6.79a.955.955 0 00.942.938h.034c.52-.02.927-.47.91-1.006-.159-4.53-2.708-7.92-6.496-8.634zm37.351 18.878c-.138 1.634.353 3.172 1.385 4.334 1.027 1.154 2.461 1.792 4.038 1.792 3.185 0 6.005-2.671 6.283-5.955.138-1.633-.353-3.17-1.386-4.332-1.027-1.154-2.461-1.79-4.038-1.79-3.186 0-6.004 2.67-6.282 5.95zm6.282-4.008c1.043 0 1.983.413 2.648 1.162.67.754.99 1.764.897 2.844-.194 2.306-2.17 4.181-4.404 4.181-1.042 0-1.982-.412-2.648-1.16-.67-.757-.989-1.768-.898-2.85.196-2.301 2.172-4.177 4.405-4.177z" fill="#5C626D"/><path d="M97.942 49.122c-2-5.594-5.536-8.088-11.468-8.088-1.599 0-3.063.316-4.313.784.833-1.93.981-3.96.454-6.159-.264-1.091-1.16-3.927-2.11-6.931-.468-1.489-.95-3.012-1.36-4.344.235.017.473.029.707.029.983 0 1.895-.201 2.253-1.066.586-1.411.873-4.815.531-6.28l-.015-.078c-.258-1.425-1.458-1.717-3.183-1.717-1.081 0-1.728.22-2.572.877l-6.935 1.408c1.427-1.242 2.982-2.678 3.962-3.76.02-.008.042-.012.062-.021 1.01-.481 2.129-.928 2.507-1.001.06.028.148.075.22.112.52.276 1.39.74 2.837.56 2.022-.25 3.674-2.536 4.336-4.738 1.208.117 2.173.22 2.196.223h.044c.037.002.074 0 .11 0a.759.759 0 00.252-.05 1.004 1.004 0 00.314-.19 1.37 1.37 0 00.073-.071.85.85 0 00.15-.23.64.64 0 00.036-.083.585.585 0 00.03-.1l.014-.043.004-.044c.003-.018.01-.036.011-.054.003-.022 0-.042 0-.063.041-.622-.411-1.154-.935-1.76-.154-.178-.4-.46-.498-.612C85.473 3.404 84.171.71 81.068.26c-3.792-.552-6.816 1.552-8.06 5.528-.167-.022-.336-.03-.504-.047-.057-.01-.113-.027-.17-.033a.861.861 0 00-.194 0c-6.495-.532-13.567 2.056-18.83 6.992-6.107 5.728-7.508 11.762-6.223 14.946.147.366.468.744.905 1.119h-3.108l1.07-12.6a.988.988 0 00-.245-.741.927.927 0 00-.695-.316h-4.513L38.937 5.52a1.009 1.009 0 00-.071-.24C37.67 2.559 35.212.919 32.294.893c-2.097-.023-3.907.865-4.52 2.197a2.525 2.525 0 00-.224.867c-1.896-.238-3.806.48-4.517 1.9-.203.408-.591 1.518.34 2.796a4.13 4.13 0 00-1.391.993c-1.008 1.085-1.294 2.49-.73 3.579.52 1 1.881 2.053 5.407 1.483l.843.462a.968.968 0 00-.61.825L25.734 29.65a.99.99 0 00.245.742c.178.2.43.315.695.315h6.32c-.055.113-.11.226-.15.346l-1.258 3.645a.972.972 0 00-.047.227c-9.736 7.29-14.44 16.738-13.398 20.059.274.874.951 1.394 1.809 1.394h3.418c-.057.331-.1.666-.129.996-.249 2.935.632 5.695 2.48 7.774 1.84 2.07 4.413 3.21 7.246 3.21 5.785 0 10.904-4.851 11.41-10.815.034-.389.041-.78.034-1.166h23.817c1.94 0 3.299-.448 4.382-1.187.088.175.195.331.32.474.41.462 1.004.714 1.676.714h1.122c-.059.331-.104.664-.131.996-.25 2.935.632 5.695 2.48 7.774 1.839 2.07 4.411 3.21 7.246 3.21 5.784 0 10.903-4.851 11.41-10.815.223-2.645-.47-5.135-1.934-7.102 1.387-.005 2.268-.01 2.268-.01a.937.937 0 00.77-.42c.173-.262.214-.591.108-.89zM79.294 11.517c-.876.107-1.319-.128-1.748-.357-.251-.134-.512-.272-.827-.322-.137-.021-.46-.07-1.46.282a5.966 5.966 0 00.03-1.775c.415.06.864.108 1.284.108.62 0 1.259-.324 1.876-.635.313-.158.834-.422 1.013-.427.53 0 1.46.063 2.456.145-.571 1.552-1.686 2.865-2.624 2.981zm1.509-9.335c2.638.383 2.946 3.159 2.98 3.71.02.316.155.6.356.89-1.61-.155-3.705-.337-4.674-.337-.609 0-1.237.318-1.844.626-.322.163-.86.435-1.047.437-.698 0-1.56-.173-2.013-.274a.924.924 0 00.047-.136c.823-3.523 3.143-5.36 6.195-4.916zM54.577 14.135c4.946-4.637 11.58-7.046 17.62-6.48.555.112.88.774.996 1.064.445 1.118.328 2.528-.27 3.28-1.384 1.742-5.783 5.47-6.974 6.368l-1.29.261c-.51.104-.843.615-.742 1.142a.945.945 0 001.106.766l12.024-2.443c.304.2.754.573.721.949-.024.284-.713.785-1.48 1.102-.713-.301-2.236-.758-3.793-.04-2.198 1.013-8.439 3.555-10.043 3.671-.544.036-1.05-.12-1.396-.435-.335-.304-.521-.752-.554-1.33-.06-1.13 2.919-6.605 5.651-8.975a.994.994 0 00.116-1.37.924.924 0 00-1.329-.118c-2.83 2.454-6.432 8.48-6.32 10.572a4.9 4.9 0 00.083.643c-.044-.01-.09-.022-.132-.03-1.479-.406-6.505-1.254-9.493-.643.832-2.427 2.613-5.248 5.5-7.954zm5.002 22.418a.965.965 0 00.635-.873c.024-.044.052-.08.067-.128l.65-1.883c.8.128 1.567.244 2.179.333-1.351 2.605-4.497 8.733-6.194 12.544-.626 1.408-.719 2.555-.73 3.227h-.516c-1.059 0-1.881-.702-2.258-1.927-.846-2.752.744-7.296 6.167-11.293zm-.95 10.804c2.165-4.858 6.735-13.577 6.782-13.666.147-.28.15-.62.011-.904a.95.95 0 00-.718-.523c-.045-.006-4.594-.62-6.893-1.145-2.855-.654-8.52-3.204-8.983-4.224-.285-.705-.372-1.596-.26-2.609.725-.757 6.324-.567 9.534.327.01.003.022.003.03.005s.019.007.028.008c2.573.536 8.952 3.911 10.162 5.198 1.962 2.086 1.478 3.165.45 4.894-1.142 1.923-7.409 11.595-7.472 11.694a.996.996 0 00-.075.94c.133.303.41.518.732.563.833.115 2.717.642 3.228 1.519.051.087.1.195.117.339h-7.23c.011-.532.092-1.37.556-2.416zm8.559 2.382c-.024-.46-.15-.9-.386-1.305-.673-1.151-2.083-1.787-3.17-2.122 1.727-2.666 5.82-9.01 6.75-10.577 1.248-2.104 2.135-4.242-.706-7.263-.776-.825-2.811-2.09-5.012-3.233 2.614-.798 6.372-2.38 7.964-3.076.935 3.12 3.175 10.607 3.779 12.794.799 2.89-.261 4.948-1.128 6.243-.45.674-.775 1.164-1.06 1.594-.638.957-1.077 1.621-2.268 3.361-1.614 2.361-2.329 3.392-4.763 3.584zM31.4 15.105l-2.788-1.53 8.694-6.317 1.28 7.845H31.4v.002zm-.917-8.418c.543-.654 2.765-.765 4.442-.075L31.71 8.947c-1.163-1.159-1.47-1.969-1.227-2.26zm-.674 3.641l-2.434 1.77c-.89-.604-1.095-1.04-1.09-1.173.003-.082.155-.281.547-.463.777-.362 1.95-.432 2.977-.134zm-.33-6.41c.248-.542 1.375-1.083 2.799-1.083.732.006 3.046.22 4.452 2.465l-.074.054c-1.935-1.22-5.138-1.576-6.9-.524-.01-.014-.014-.03-.025-.045-.415-.513-.294-.778-.253-.866zm-4.771 2.827c.382-.767 2.309-1.294 3.87-.472l.023.01c-.14.499-.138 1.135.218 1.924-.927-.045-1.82.107-2.547.401-1.165-.674-1.792-1.406-1.564-1.863zm-1.795 5.56c-.166-.318.015-.872.428-1.317a2.19 2.19 0 011.15-.657 2.082 2.082 0 00-.09.51c-.029.714.287 1.403.936 2.062-1.482.096-2.232-.226-2.424-.597zm5.78 4.744h15.291L42.99 28.76H27.7l.994-11.712zm15.16 13.656H51.2c2.423 1.16 5.184 2.08 6.202 2.312.477.11 1.045.22 1.638.33l-.454 1.318H33.594l1.024-2.964c.179-.52.785-.996 1.272-.996h7.965zm-1.36 26.667c-.423 4.987-4.7 9.04-9.531 9.04-2.299 0-4.378-.917-5.856-2.577-1.487-1.675-2.194-3.907-1.991-6.294.032-.388.1-.778.18-1.166h2.824c-.08.327-.14.662-.17.996-.138 1.634.354 3.173 1.386 4.334 1.027 1.154 2.462 1.792 4.039 1.792 3.186 0 6.004-2.671 6.282-5.956a6.15 6.15 0 00-.012-1.166h2.875c.006.33.002.664-.026.997zm-4.753-.997c.05.326.066.657.038.996-.196 2.306-2.171 4.18-4.404 4.18-1.043 0-1.982-.412-2.649-1.16-.67-.756-.988-1.767-.897-2.847.034-.4.122-.79.262-1.169h7.65zM19.95 54.43c-.04-.094-.124-.388-.03-1.072.44-3.153 4.242-10.458 12.574-16.749h23.978c-4.85 4.408-5.722 9-4.857 11.824.623 2.026 2.175 3.286 4.056 3.286h10.6c4.186 0 5.328-1.672 7.223-4.442 1.199-1.753 1.641-2.422 2.282-3.385.285-.428.61-.92 1.058-1.59 1.698-2.538 2.152-5.116 1.388-7.878-.603-2.186-2.813-9.58-3.765-12.755.744.047 1.32.366 1.324.368a.92.92 0 00.75.081c.493-.16 2.96-1.056 3.118-2.91.068-.79-.246-1.455-.681-1.969.136-.018.29-.025.474-.025.825 0 1.189.085 1.33.134l.034.173c.218.932.041 3.694-.37 4.9-.388.099-1.356.008-1.791-.032a9.386 9.386 0 00-.812-.055c-.015 0-.028.004-.045.005a.873.873 0 00-.191.03c-.015.003-.029.003-.043.008-.014.004-.025.012-.04.018a1.53 1.53 0 00-.093.04c-.026.015-.053.028-.077.044-.025.017-.052.035-.075.053-.025.019-.05.04-.073.06-.022.02-.04.042-.062.065a.862.862 0 00-.057.074.78.78 0 00-.05.077 1.078 1.078 0 00-.122.346.928.928 0 00-.01.106c0 .014-.004.028-.004.043 0 .015.004.028.004.044a1.017 1.017 0 00.029.2c.003.014.004.029.01.043.479 1.6 1.143 3.704 1.784 5.736.899 2.838 1.825 5.773 2.072 6.798.56 2.33.201 4.343-1.13 6.335-1.19 1.779-3 4.449-5.383 7.93-.592.867-1.098 1.599-1.626 2.197a.946.946 0 00-.142.158c-1.027 1.098-2.184 1.684-4.281 1.684l-48.278.002zm74.899 2.942c-.423 4.987-4.7 9.04-9.532 9.04-2.298 0-4.377-.917-5.856-2.577-1.487-1.675-2.193-3.907-1.992-6.294a9.79 9.79 0 01.216-1.335c.954-.386 1.924-1.396 3.083-2.61 1.333-1.393 2.991-3.13 4.164-3.13 2.449 0 5.094-.007 7.287-.017 1.9 1.692 2.861 4.2 2.63 6.923zm-9.918-8.85c-1.962 0-3.846 1.97-5.508 3.71-.78.818-2.086 2.185-2.54 2.2H74.6c-.08 0-.222-.012-.286-.082-.07-.08-.13-.28-.134-.615.564-.664 1.083-1.415 1.633-2.22 1.749-2.556 3.187-4.674 4.303-6.327.028-.02.06-.037.087-.062 1.142-.99 3.47-2.15 6.271-2.15 4.669 0 7.413 1.619 9.175 5.516-2.229.012-6.736.03-10.719.03z" fill="#5C626D"/><path d="M12.16 28.24h9.314c.52 0 .943-.435.943-.971 0-.537-.422-.972-.943-.972H12.16c-.52 0-.943.435-.943.972 0 .536.424.972.943.972zm11.81 5.678c0-.537-.422-.972-.942-.972H1.138c-.521 0-.944.434-.944.972s.423.973.943.973h21.89c.521 0 .944-.437.944-.973zm-9.367 5.851H5.938a.956.956 0 00-.943.97c0 .539.423.974.943.974h8.666c.52 0 .943-.435.943-.973a.956.956 0 00-.944-.971z" fill="#5C626D"/></svg>