<svg width="74" height="68" fill="none" xmlns="http://www.w3.org/2000/svg"><path d="M42.1 66.644H11.932c-1.067 0-1.896-.758-1.896-1.734V41.058c0-1.41 1.896-1.626 4.978-1.789 3.26-1.68 5.572-3.686 6.876-6.017.474-.867 1.066-2.222 1.66-3.632 1.836-4.228 2.785-6.125 3.91-6.667 1.186-.542 2.312-.488 2.43-.488h.297c1.897.217 3.616 1.789 4.268 3.903.652 2.385 1.067 6.017-.593 9.974-.415 1.03-.948 2.006-1.482 2.873h17.722c2.845 0 5.215 1.735 5.393 3.957.119 1.03-.296 2.06-1.126 2.928a5.415 5.415 0 01-2.252 1.355c.652.759.948 1.68.889 2.656-.119 1.789-1.66 3.253-3.734 3.74.593.76.83 1.627.77 2.548-.118 1.68-1.481 3.09-3.378 3.632.652.759.948 1.68.89 2.602-.238 2.277-2.609 4.011-5.454 4.011zm-29.694-2.168H42.1c1.6 0 2.905-.867 3.023-1.951.06-.597-.296-1.03-.533-1.301-.534-.542-1.423-.868-2.312-.868-.652 0-1.185-.488-1.185-1.084 0-.596.533-1.084 1.185-1.084h2.37c1.601 0 2.905-.867 3.024-1.951.059-.597-.297-1.03-.534-1.301-.533-.542-1.422-.868-2.311-.868-.652 0-1.186-.488-1.186-1.084 0-.596.534-1.084 1.186-1.084h2.845c1.6 0 2.904-.867 3.022-1.952.06-.596-.296-1.03-.533-1.3-.533-.543-1.422-.868-2.312-.868-.651 0-1.185-.488-1.185-1.084 0-.596.533-1.084 1.185-1.084h2.371c.89-.055 1.838-.38 2.371-.922.237-.27.533-.704.533-1.3-.059-1.03-1.481-1.952-3.022-1.952H30.958c-.593 0-1.126-.271-1.423-.76-.296-.487-.237-1.03.06-1.463.77-1.03 1.422-2.222 2.015-3.578 1.422-3.415 1.066-6.559.474-8.619-.415-1.246-1.363-2.222-2.312-2.33h-.177c-.119 0-.593 0-1.067.216-.593.542-1.956 3.686-2.786 5.53-.652 1.463-1.245 2.818-1.778 3.794-1.541 2.819-4.267 5.204-8.06 7.101-.178.054-.297.109-.475.109-1.719.108-2.548.217-3.023.27v22.768zM6.242 45.395h-.118c-1.008 0-1.778-.705-1.778-1.626v-.109c0-.921.77-1.626 1.778-1.626h.118c1.008 0 1.779.705 1.779 1.626v.109c0 .867-.771 1.626-1.779 1.626zm-.592-1.68c.059.27.237.433.533.487.297 0 .474-.216.534-.487-.06-.271-.237-.434-.534-.488-.237 0-.474.217-.533.488z" fill="#5C626D"/><path d="M8.791 68h-4.8C2.033 68 .433 66.482.433 64.585V41.384c0-1.897 1.6-3.415 3.556-3.415H8.79c2.015 0 3.556 1.518 3.556 3.415v23.2c.06 1.898-1.6 3.416-3.556 3.416zm-4.8-27.863c-.653 0-1.186.542-1.186 1.247v23.2c0 .706.533 1.248 1.185 1.248h4.801c.652 0 1.185-.542 1.185-1.247V41.384c0-.705-.533-1.247-1.185-1.247h-4.8zM45.42 15.851c-.238 0-.416-.054-.593-.162-.415-.217-.652-.705-.534-1.139l.593-2.873h-3.378c-1.423 0-2.549-1.03-2.549-2.276V3.058c0-1.247 1.126-2.277 2.549-2.277h29.93c1.364 0 2.49.976 2.55 2.223v6.397c0 1.246-1.127 2.276-2.55 2.276H51.584l-5.393 3.957c-.237.163-.534.217-.77.217zM41.447 2.95c-.118 0-.178.054-.178.108v6.343c0 .054.06.108.178.108h4.801c.356 0 .711.163.89.38.236.27.295.596.236.867l-.237 1.355 3.26-2.385c.237-.163.474-.217.711-.217H71.32c.119 0 .178-.054.178-.108V3.058s-.06-.108-.178-.108H41.448z" fill="#5C626D"/><path d="M60.355 7.612h-15.35c-.652 0-1.186-.488-1.186-1.084 0-.597.534-1.085 1.186-1.085h15.35c.652 0 1.186.488 1.186 1.085 0 .596-.474 1.084-1.186 1.084zm7.468 0h-3.852c-.652 0-1.186-.488-1.186-1.084 0-.597.534-1.085 1.186-1.085h3.852c.652 0 1.186.488 1.186 1.085 0 .596-.534 1.084-1.186 1.084zm-.415 26.182c-.237 0-.533-.054-.71-.217l-5.394-3.957H41.448c-1.422 0-2.548-1.03-2.548-2.277v-6.342c.059-1.301 1.185-2.277 2.548-2.277H71.38c1.423 0 2.549 1.03 2.549 2.277v6.342c0 1.247-1.126 2.277-2.549 2.277h-3.378l.593 2.873a1.15 1.15 0 01-.534 1.138 1.66 1.66 0 01-.652.163zm-25.96-12.902a.18.18 0 00-.177.163v6.288c0 .054.059.109.177.109H61.66c.297 0 .534.108.711.216l3.26 2.386-.237-1.356c-.06-.325.06-.65.237-.867.237-.27.534-.38.89-.38h4.8c.119 0 .178-.054.178-.108v-6.342c0-.054-.06-.109-.178-.109H41.448z" fill="#5C626D"/><path d="M67.823 25.555h-15.41c-.652 0-1.185-.488-1.185-1.085 0-.596.533-1.084 1.185-1.084h15.35c.653 0 1.186.488 1.186 1.084 0 .597-.474 1.085-1.126 1.085zm-18.966 0h-3.852c-.653 0-1.186-.488-1.186-1.084 0-.597.533-1.084 1.185-1.084h3.853c.652 0 1.185.487 1.185 1.084 0 .596-.533 1.084-1.185 1.084z" fill="#5C626D"/></svg>