<svg width="71" height="69" fill="none" xmlns="http://www.w3.org/2000/svg"><path d="M14.357 46.765a.978.978 0 00-.137-.154.851.851 0 00-.726-.228.907.907 0 00-.285.09L.43 53.776a.85.85 0 10.844 1.477l12.067-6.89 12.47 20.203a.85.85 0 101.446-.893l-12.9-20.907zM69.906 7.537a.85.85 0 00-1.16-.317l-12.71 7.26a17.002 17.002 0 00-33.597 2.317l-9.13 5.31-11.46-18.57a.85.85 0 00-1.447.893l19.546 31.676a.855.855 0 001.146.292L29.32 31.7a16.856 16.856 0 003.721 2.097l.505 1.063-9.332 5.33a.952.952 0 00-.195.17.867.867 0 00-.106.994l7.673 12.997a.89.89 0 00.461.378.866.866 0 00.7-.064l36.229-20.773a.852.852 0 00-.2-1.56.85.85 0 00-.646.084l-35.5 20.356-6.813-11.54 8.46-4.831 4.354 9.185a.85.85 0 001.538 0l5.582-11.792a17.109 17.109 0 009.347-9.286l14.22-8.122a.851.851 0 00-.845-1.477L55.9 22.091a16.787 16.787 0 00.425-5.819l13.268-7.578a.85.85 0 00.313-1.157zM20.964 34.513l-6.761-10.957 8.207-4.774a17.108 17.108 0 005.507 11.761l-6.953 3.97zm23.86-2.18a.85.85 0 00-.467.43L39.399 43.24l-4.965-10.475a.851.851 0 00-.467-.431 15.31 15.31 0 1110.857 0zM.386 47.247a.85.85 0 001.16.317l9.072-5.183a.987.987 0 00.392-.515.9.9 0 00-.09-.67l-8.474-13.73A.85.85 0 001 28.357L9.012 41.34.699 46.085a.85.85 0 00-.313 1.16zm67.262-7.757L34.946 58.372a.879.879 0 00-.121.104.987.987 0 00-.107.107.825.825 0 00-.164.363c-.013.079-.017.16-.013.24a.89.89 0 00.104.352l5.324 9.016a.85.85 0 001.465-.865l-4.887-8.277 16.388-9.463 11.488 18.615a.85.85 0 001.446-.893l-11.46-18.574 14.09-8.133a.85.85 0 00-.85-1.474z" fill="#5C626D"/><path d="M37.698 17.158a.85.85 0 00-.85.85v3.402a.85.85 0 00.85.851H41.1a.85.85 0 00.85-.85v-3.403a.85.85 0 00-.85-.85h-3.402zm2.552 3.402h-1.702v-1.701h1.702v1.7z" fill="#5C626D"/><path d="M39.892 7.96a.883.883 0 00-1.013.018l-2.882 2.051v-.526a.85.85 0 00-.85-.85h-3.403a.85.85 0 00-.85.85v4.239l-1.51 1.089a.85.85 0 00.996 1.38l.51-.371v10.674a.85.85 0 00.85.85h15.314a.85.85 0 00.85-.85V15.747l.72.51a.851.851 0 00.986-1.386l-9.718-6.912zm-5.596 2.393v.887l-1.701 1.21v-2.097h1.7zm11.907 15.31H32.595v-11.05l6.804-4.914 6.804 4.838v11.126z" fill="#5C626D"/></svg>