<svg width="86" height="123" fill="none" xmlns="http://www.w3.org/2000/svg"><path d="M42.79 68.3a.774.774 0 01.027.125c2.7 11.887 12.75 10.693 12.78 10.69a.881.881 0 01.587.138l11.534 7.741a3.25 3.25 0 002.21.513c.778-.09 1.565-.44 2.24-1.034l9.207-8.118c.207-.182.36-.39.456-.611.095-.223.136-.467.116-.718a1.258 1.258 0 00-.226-.647 1.198 1.198 0 00-.542-.4l.001-.001-14.429-5.676a.785.785 0 01-.383-.305c-.019-.027-6.31-9.645-8.08-13.676-1.57-3.578-3.776-3.918-3.783-3.92a.866.866 0 01-.175-.05l-13.824-5.578 10.412 14.483-.003.001a.797.797 0 01.11.217c.224.678.067 1.363-.296 1.926a2.91 2.91 0 01-.813.83c-.327.22-.7.37-1.078.422-.556.077-1.104-.053-1.53-.47l-9.994-6.866c-.546-.375-1.26-.322-1.862-.012-.271.14-.52.332-.72.56a1.853 1.853 0 00-.398.716c-.17.604.025 1.345.842 2.1l7.278 6.722v.001a.8.8 0 01.237.431c.032.158.065.313.1.466zm-1.552 1.984l-10.684 8.174c-1.061.812-2.304 1.161-3.452 1.071-1.148-.09-2.201-.62-2.884-1.57L2.946 48.367c-.682-.949-.869-2.143-.62-3.302.25-1.16.936-2.285 1.997-3.096l17.26-13.205c1.062-.812 2.305-1.161 3.453-1.07 1.147.09 2.201.62 2.883 1.57l10.4 14.466 16.859 6.803c.534.122 3.18.912 4.9 4.833 1.573 3.583 6.902 11.83 7.815 13.234l14.208 5.59.001-.002c.514.202.933.525 1.239.944.303.416.487.92.533 1.487a3.474 3.474 0 01-.276 1.662 4.035 4.035 0 01-1.051 1.43l-9.208 8.117c-1.026.904-2.238 1.438-3.447 1.578-1.206.141-2.403-.113-3.402-.784L55.2 81.045c-1.871.1-10.897.006-13.962-10.76zm-4.416-25.121l-.004-.006L26.289 30.51c-.393-.547-1.001-.853-1.665-.905-.663-.053-1.38.149-1.992.616l-12.498 9.561 24.135 33.573 6.349-4.857-6.867-6.341c-1.346-1.244-1.621-2.63-1.28-3.848a4.1 4.1 0 01.878-1.586 4.65 4.65 0 01.571-.548l-1.56-2.17c-.145-.202-.08-.505.145-.677.225-.172.525-.148.67.053l1.608 2.236c.677-.341 1.427-.519 2.153-.473a.571.571 0 01.198-.278c.225-.172.525-.148.67.053l.41.57c.117.06.231.129.342.205L48.61 62.6c.058.04.108.085.152.136.023.02.047.028.068.025a.379.379 0 00.15-.067.568.568 0 00.16-.16.32.32 0 00.053-.163l-12.37-17.208zM22.25 41.962a3.566 3.566 0 01-.652-1.812 3.517 3.517 0 01-.674-.367 3.38 3.38 0 01-.816-.802c-.625-.869-.797-1.958-.57-3.015.228-1.057.855-2.083 1.827-2.827.972-.743 2.106-1.064 3.153-.982 1.047.083 2.007.568 2.632 1.438.227.316.395.666.506 1.039.075.252.124.51.145.77.587.24 1.103.632 1.491 1.171.625.87.797 1.958.57 3.016-.228 1.057-.855 2.083-1.827 2.826-.972.744-2.106 1.065-3.153.983-1.047-.083-2.007-.569-2.632-1.438zm-.508-3.264a4.923 4.923 0 011.765-2.579c.896-.685 1.93-1.011 2.905-.994a2.42 2.42 0 00-.35-.699c-.432-.6-1.095-.937-1.819-.994-.723-.057-1.507.165-2.18.68a3.38 3.38 0 00-1.262 1.953c-.157.731-.038 1.484.394 2.085.158.221.344.403.547.548zm1.201.347c-.157.731-.038 1.484.394 2.085.432.602 1.096.938 1.82.994.723.057 1.507-.164 2.18-.678a3.381 3.381 0 001.262-1.955c.157-.73.039-1.483-.394-2.084-.432-.602-1.096-.938-1.82-.995-.723-.057-1.506.165-2.179.68a3.38 3.38 0 00-1.263 1.953zm13.67 14.218c.145.2.08.504-.145.676-.225.172-.525.148-.67-.053l-.894-1.244c-.145-.2-.08-.504.145-.676.225-.172.526-.148.67.053l.894 1.244zM19.52 44.419c.145.201.08.504-.146.676-.224.172-.524.149-.67-.053l-3.372-4.691c-.145-.202-.08-.504.146-.676.225-.172.525-.15.67.052l3.372 4.692zm7.707 10.72c.144.202.08.505-.146.677-.225.172-.525.148-.67-.053l-4.87-6.775c-.144-.201-.08-.504.146-.676.225-.172.525-.149.67.053l4.87 6.774zm9.928 13.812c.145.201.08.504-.145.676-.225.172-.525.148-.67-.053l-7.11-9.89c-.145-.201-.08-.504.146-.676.225-.172.525-.149.67.052l7.11 9.89zM9.047 40.614l-3.133 2.397L30.05 76.584l3.133-2.397L9.047 40.614zm-4.176 3.289c-.33.392-.55.846-.65 1.311-.145.67-.038 1.36.355 1.906L25.85 76.712c.392.546 1.001.852 1.664.904.46.037.947-.049 1.406-.261L4.87 43.903z" fill="#5C626D"/></svg>