<svg width="62" height="68" fill="none" xmlns="http://www.w3.org/2000/svg"><path d="M40.173 60.832a18.293 18.293 0 01-13.04-5.416L5.504 33.724c-7.19-7.21-7.19-18.942 0-26.153l2.729-2.737a.856.856 0 011.213 0l8.58 8.605a.862.862 0 01-.023 1.239c-1.867 1.738-2.26 2.714-2.328 3.14-.882 5.522 1.314 11.868 6.026 17.41 5.305 6.24 12.674 10.117 19.23 10.117.706 0 1.409-.045 2.09-.133.423-.055 1.391-.428 3.125-2.31a.856.856 0 011.236-.023l8.56 8.584a.861.861 0 010 1.216l-2.729 2.737a18.292 18.292 0 01-13.039 5.416zM8.838 6.66L6.715 8.788c-6.521 6.54-6.521 17.18 0 23.72l21.631 21.691a16.592 16.592 0 0011.827 4.913c4.467 0 8.667-1.745 11.826-4.913l2.123-2.128-7.336-7.357c-1.356 1.347-2.521 2.07-3.546 2.204-.753.098-1.53.147-2.31.147-7.044 0-14.913-4.108-20.535-10.721-5.038-5.926-7.377-12.778-6.415-18.798.162-1.01.888-2.163 2.216-3.509L8.838 6.66z" fill="#5C626D"/><path d="M17.419 14.908a.854.854 0 01-.607-.252L8.232 6.05a.862.862 0 01-.014-1.202L12.26.603a.856.856 0 011.233-.007l9.097 9.313a.861.861 0 01-.147 1.324c-.024.016-2.473 1.61-4.442 3.445a.854.854 0 01-.583.23zm-7.382-9.48l7.413 7.435a39.144 39.144 0 013.197-2.486l-7.758-7.942-2.852 2.994zm45.298 47.503a.856.856 0 01-.606-.252l-8.56-8.584a.862.862 0 01-.023-1.192c1.82-1.975 3.396-4.446 3.412-4.471a.857.857 0 011.33-.146l9.097 9.123a.861.861 0 010 1.216l-4.043 4.054a.856.856 0 01-.607.252zm-7.38-9.477l7.38 7.4 2.83-2.837-7.751-7.774a38.11 38.11 0 01-2.459 3.21zm4.348-7.755a.861.861 0 01-.606-1.468 17.686 17.686 0 005.191-12.57c0-4.748-1.843-9.212-5.191-12.57-6.912-6.93-18.158-6.93-25.069 0a.856.856 0 01-1.213 0 .862.862 0 010-1.216c7.58-7.6 19.914-7.601 27.494 0a19.396 19.396 0 015.695 13.786 19.396 19.396 0 01-5.695 13.786.854.854 0 01-.606.252z" fill="#5C626D"/><path d="M47.249 30.63a.861.861 0 01-.606-1.468c4.124-4.136 4.124-10.866 0-15.002-4.55-4.562-10.964-2.8-15.074.096a.856.856 0 01-1.195-.21.862.862 0 01.209-1.198c6.129-4.318 12.909-4.28 17.272.096 4.794 4.807 4.794 12.628 0 17.435a.854.854 0 01-.606.252z" fill="#5C626D"/><path d="M41.962 25.328a.862.862 0 01-.607-1.468 3.12 3.12 0 000-4.398 3.098 3.098 0 00-4.385 0 .856.856 0 01-1.213 0 .862.862 0 010-1.216 4.812 4.812 0 016.811 0 4.845 4.845 0 010 6.83.854.854 0 01-.606.252zm19.036 35.505H6.677a.859.859 0 010-1.72h54.321a.859.859 0 010 1.72zM52.421 68H15.254a.859.859 0 010-1.72h37.167a.859.859 0 010 1.72z" fill="#5C626D"/></svg>