<svg width="81" height="71" fill="none" xmlns="http://www.w3.org/2000/svg"><path d="M70.962 42.435c-.525 0-1.06.05-1.586.152-1.7.327-3.154 1.164-4.316 2.487a9.54 9.54 0 00-1.415 2.149 9.537 9.537 0 00-2.107-1.47c-.049-.025-.1-.036-.148-.06V35.3c1.04.18 2.194.344 3.516.344a14.99 14.99 0 003.207-.342l6.575-1.42c1.435-.31 2.609-1.28 3.14-2.595a3.881 3.881 0 00.043-2.828 4.09 4.09 0 001.137-4.449 4.04 4.04 0 001.373-2.756 4.05 4.05 0 00-1.056-3.062 4.1 4.1 0 00-.018-2.58c-.55-1.628-2.153-2.723-3.987-2.723a4.48 4.48 0 00-.94.1l-6.46 1.397c.067-1.826-.261-4.194-.472-5.114-.538-2.357-2.699-4.068-5.138-4.068a5.19 5.19 0 00-.92.1v-.948a3.514 3.514 0 00-3.51-3.51H22.245a3.514 3.514 0 00-3.51 3.51v16.657c-.474.269-.937.483-1.358.574-1.168.252-2.154.184-3.409.039l-.203-.024-4.2-2.707a.987.987 0 00-1.37.296L.158 31.656a.992.992 0 00.296 1.371l4.248 2.739c.28.358.56.758.862 1.196 1.133 1.637 2.543 3.677 5.192 5.383l5.653 3.647a4.443 4.443 0 002.325.707v19.815a3.513 3.513 0 003.51 3.51h35.633a3.512 3.512 0 003.507-3.47c.48.275.973.554 1.48.843 1.158.652 2.473 1.4 3.83 2.188a1.824 1.824 0 001.298.23c.45-.087.85-.331 1.119-.685.973-1.248 1.915-2.43 2.767-3.488 5.072-6.344 8.423-10.534 7.407-15.814-.84-4.352-4.262-7.393-8.324-7.393zm-15.714-21.83l2.715 12.558-3.174.685-2.714-12.557 3.173-.685zM65.513 9.713c.335 1.458.605 4.634.295 5.649a.992.992 0 001.159 1.259l7.832-1.693c1.127-.243 2.302.35 2.629 1.319a2.08 2.08 0 01-.16 1.715.992.992 0 00.279 1.292c.591.43.91 1.122.854 1.85a2.073 2.073 0 01-1.12 1.697.987.987 0 00-.368 1.432 2.096 2.096 0 01-.772 3.023.99.99 0 00-.366 1.431c.386.58.463 1.237.213 1.855-.286.706-.929 1.23-1.72 1.401l-6.574 1.42c-.924.2-1.837.297-2.788.297-1.47 0-2.772-.238-3.918-.445-.357-.065-.697-.127-1.021-.18L57.11 19.82c.967-.771 1.816-1.473 2.673-2.802 1.55-2.402 1.496-7.109.998-9.577l.831-.18c1.735-.371 3.515.763 3.901 2.452zM9.323 21.1l2.729 1.76-3.48 5.399-3.48 5.4-2.727-1.76L9.324 21.1zm2.508 19.579c-2.316-1.493-3.548-3.275-4.635-4.846a47.052 47.052 0 00-.598-.852l5.847-9.07 1.477-2.293c1.283.147 2.517.201 3.872-.091 2.793-.604 6.083-3.97 7.478-6.065l.713.459c1.51.973 1.97 2.99 1.026 4.494-.795 1.267-2.849 3.703-3.785 4.201a.991.991 0 00-.072 1.71l6.736 4.342c.981.632 1.387 1.858.927 2.792a2.09 2.09 0 01-1.325 1.1.991.991 0 00-.717 1.11c.097.614-.07 1.21-.47 1.68a2.09 2.09 0 01-1.586.743c-.215 0-.429-.033-.64-.1a.988.988 0 00-1.273.752c-.051.26-.15.506-.295.73-.5.779-1.51 1.136-2.388.862a.997.997 0 00-.804.091.986.986 0 00-.468.662c-.24 1.206-1.243 1.634-2.032 1.634-.468 0-.93-.137-1.335-.398l-5.653-3.647zm47.574 25.836c0 .843-.685 1.527-1.526 1.527H22.245a1.528 1.528 0 01-1.527-1.527v-20.26a3.86 3.86 0 001.778-1.848 4.102 4.102 0 003.949-2.34 4.069 4.069 0 003.367-1.428c.594-.696.93-1.564.968-2.462a4.106 4.106 0 001.815-1.837c.9-1.824.185-4.169-1.631-5.34l-5.556-3.58c1.34-1.245 2.783-3.151 3.283-3.95 1.518-2.419.787-5.655-1.632-7.217l-.715-.46c-.908-.585-2.207-.302-2.791.604-.613.951-1.675 2.161-2.836 3.181V4.357c0-.842.685-1.527 1.526-1.527h35.634c.843 0 1.526.685 1.526 1.526v1.66a2.02 2.02 0 00-.592 1.888c.47 2.176.432 6.285-.697 8.039-.722 1.12-1.42 1.673-2.385 2.438l-.158.127-4.884 1.056a.99.99 0 00-.624.432.99.99 0 00-.138.746l3.132 14.496a.992.992 0 001.178.76l4.933-1.065c.073.009.159.028.234.037v10.079a7.493 7.493 0 00-2.8 0c-4.679.9-7.478 5.373-6.512 10.401.843 4.367 4.185 6.935 9.312 9.959v1.105h.003zm10.908-2.092a120.018 120.018 0 00-2.673 3.418 354.572 354.572 0 00-3.8-2.173c-6.595-3.74-10.953-6.208-11.8-10.594-.752-3.918 1.371-7.392 4.94-8.079a5.537 5.537 0 013.02.249l.029.013c.205.078.411.167.612.268 1.167.588 2.049 1.482 2.584 2.127a.99.99 0 001.707-.33c.256-.795.745-1.95 1.616-2.937.865-.983 1.942-1.606 3.201-1.849a6.493 6.493 0 011.212-.116c3.148 0 5.708 2.325 6.374 5.785.846 4.38-2.28 8.287-7.022 14.218z" fill="#5C626D"/><path d="M47.994 7.828H32.13a.992.992 0 000 1.983h15.865a.992.992 0 000-1.983zm-5.453 53.231h-4.96a.992.992 0 000 1.983h4.96a.992.992 0 000-1.983z" fill="#5C626D"/></svg>