<svg width="18" height="19" viewBox="0 0 18 19" fill="none" xmlns="http://www.w3.org/2000/svg">
    <path d="M11.1364 9.43963C11.4853 9.43963 11.7691 9.18515 11.7691 8.87201C11.7691 8.72057 11.7034 8.57781 11.5839 8.47074L11.279 8.19826L11.5843 7.92547C11.7034 7.8184 11.7691 7.67595 11.7691 7.5245C11.7691 7.21137 11.4853 6.95689 11.1364 6.95689C10.9699 6.95689 10.8068 7.0174 10.6888 7.12292L9.48938 8.19826L10.6888 9.27329C10.8068 9.37912 10.9695 9.43963 11.1364 9.43963Z" fill="#5C626D"/>
    <path d="M8.51047 8.19826L7.31105 7.12323C7.19302 7.0174 7.03032 6.95689 6.86348 6.95689C6.51456 6.95689 6.23071 7.21137 6.23071 7.5245C6.23071 7.67595 6.29648 7.81871 6.4159 7.92578L6.72086 8.19826L6.41556 8.47105C6.29648 8.57812 6.23071 8.72057 6.23071 8.87201C6.23071 9.18515 6.51456 9.43963 6.86348 9.43963C7.02998 9.43963 7.19302 9.37912 7.31105 9.2736L8.51047 8.19826Z" fill="#5C626D"/>
    <path d="M8.24812 10.681C8.41462 10.681 8.57766 10.6205 8.6957 10.515L8.99997 10.2428L9.30389 10.5144C9.42227 10.6205 9.58496 10.681 9.75181 10.681C10.1007 10.681 10.3846 10.4265 10.3846 10.1134C10.3846 9.96194 10.3188 9.81918 10.1994 9.71211L8.99997 8.63708L7.80055 9.71211C7.68113 9.81949 7.61536 9.96194 7.61536 10.1134C7.61536 10.4265 7.8992 10.681 8.24812 10.681Z" fill="#5C626D"/>
    <path d="M12.1154 9.66598C11.8727 9.90649 11.5255 10.0604 11.1365 10.0604H13.0943C12.7052 10.0604 12.358 9.90649 12.1154 9.66598Z" fill="#5C626D"/>
    <path d="M4.90573 10.0603C4.88324 10.0603 4.86212 10.0557 4.83997 10.0544C4.83997 10.0563 4.84066 10.0582 4.84066 10.0603H4.90573Z" fill="#5C626D"/>
    <path d="M11.1364 10.0603C11.1139 10.0603 11.0928 10.0557 11.0707 10.0544C11.0707 10.0563 11.0714 10.0582 11.0714 10.0603H11.1364Z" fill="#5C626D"/>
    <path d="M13.1604 10.0544C13.1379 10.0557 13.1167 10.0603 13.0942 10.0603H13.1597C13.1597 10.0585 13.16 10.0566 13.1604 10.0544Z" fill="#5C626D"/>
    <path d="M6.92964 10.0544C6.90714 10.0557 6.88603 10.0603 6.86353 10.0603H6.92895C6.92895 10.0585 6.92929 10.0566 6.92964 10.0544Z" fill="#5C626D"/>
    <path d="M4.90566 9.43963C5.25458 9.43963 5.53843 9.18515 5.53843 8.87201C5.53843 8.72057 5.47266 8.57781 5.35323 8.47074L5.04827 8.19826L5.35358 7.92547C5.47266 7.8184 5.53843 7.67595 5.53843 7.5245C5.53843 7.21137 5.25458 6.95689 4.90566 6.95689C4.73916 6.95689 4.57612 7.0174 4.45808 7.12292L3.25867 8.19826L4.45808 9.27329C4.57612 9.37912 4.73881 9.43963 4.90566 9.43963Z" fill="#5C626D"/>
    <path d="M15.5349 5.88159L15.2307 6.15376L14.9268 5.88221C14.8084 5.77607 14.6457 5.71555 14.4788 5.71555C14.1299 5.71555 13.8461 5.97003 13.8461 6.28317C13.8461 6.43462 13.9118 6.57738 14.0313 6.68444L15.2307 7.75947L16.4301 6.68444C16.5495 6.57707 16.6153 6.43462 16.6153 6.28317C16.6153 5.97003 16.3314 5.71555 15.9825 5.71555C15.8157 5.71555 15.653 5.77607 15.5349 5.88159Z" fill="#5C626D"/>
    <path d="M1.56983 9.71211C1.45041 9.81949 1.38464 9.96194 1.38464 10.1134C1.38464 10.4265 1.66849 10.681 2.01741 10.681C2.18391 10.681 2.34695 10.6205 2.46498 10.515L2.76925 10.2428L3.07317 10.5144C3.19156 10.6205 3.35425 10.681 3.5211 10.681C3.87002 10.681 4.15386 10.4265 4.15386 10.1134C4.15386 9.96194 4.08809 9.81918 3.96867 9.71211L2.76925 8.63708L1.56983 9.71211Z" fill="#5C626D"/>
    <path d="M5.88456 9.66598C5.64191 9.90649 5.29471 10.0604 4.90564 10.0604H6.86348C6.4744 10.0604 6.12721 9.90649 5.88456 9.66598Z" fill="#5C626D"/>
    <path d="M14.7412 8.19826L13.5418 7.12323C13.4237 7.0174 13.261 6.95689 13.0942 6.95689C12.7453 6.95689 12.4614 7.21137 12.4614 7.5245C12.4614 7.67595 12.5272 7.81871 12.6466 7.92578L12.9516 8.19826L12.6463 8.47105C12.5272 8.57812 12.4614 8.72057 12.4614 8.87201C12.4614 9.18515 12.7453 9.43963 13.0942 9.43963C13.2607 9.43963 13.4237 9.37912 13.5418 9.2736L14.7412 8.19826Z" fill="#5C626D"/>
    <path d="M9.30423 5.88159L8.99997 6.15376L8.69604 5.88221C8.57766 5.77607 8.41497 5.71555 8.24812 5.71555C7.8992 5.71555 7.61536 5.97003 7.61536 6.28317C7.61536 6.43462 7.68113 6.57738 7.80055 6.68444L8.99997 7.75947L10.1994 6.68444C10.3188 6.57707 10.3846 6.43462 10.3846 6.28317C10.3846 5.97003 10.1007 5.71555 9.75181 5.71555C9.58496 5.71555 9.42227 5.77607 9.30423 5.88159Z" fill="#5C626D"/>
    <path d="M3.61039 18.1293C3.5602 18.1293 3.51105 18.1259 3.46155 18.1231V18.75H14.5384V18.1231C14.4889 18.1259 14.4398 18.1293 14.3896 18.1293H3.61039Z" fill="#5C626D"/>
    <path d="M15.5769 13.4741H14.8846V12.5431H14.1923V13.4741H13.5V12.5431H12.8077V13.4741H12.1154V12.5431H11.4231V13.4741H10.7308V12.5431H10.0385V13.4741H9.34617V12.5431H8.65386V13.4741H7.96156V12.5431H7.26926V13.4741H6.57695V12.5431H5.88465V13.4741H5.19234V12.5431H4.50004V13.4741H3.80773V12.5431H3.11543V13.4741H2.42313V12.5431H1.42725L1.62767 14.0948H3.11543V14.7155H1.70798L1.78828 15.3362H3.11543V15.9569H1.86824L1.88763 16.1065C1.93124 16.4956 2.12993 16.8355 2.42313 17.0841V16.5776H3.11543V17.4378C3.27328 17.4801 3.43735 17.5086 3.61043 17.5086H3.80773V16.5776H4.50004V17.5086H5.19234V16.5776H5.88465V17.5086H6.57695V16.5776H7.26926V17.5086H7.96156V16.5776H8.65386V17.5086H9.34617V16.5776H10.0385V17.5086H10.7308V16.5776H11.4231V17.5086H12.1154V16.5776H12.8077V17.5086H13.5V16.5776H14.1923V17.5086H14.3896C14.5623 17.5086 14.7268 17.4801 14.8846 17.4378V16.5776H15.5769V17.0847C15.8698 16.8367 16.0684 16.4981 16.1117 16.1114L16.1318 15.9569H14.8846V15.3362H16.2118L16.2921 14.7155H14.8846V14.0948H16.3724L16.5728 12.5431H15.5769V13.4741ZM5.88465 15.9569H3.80773V15.3362H5.88465V15.9569ZM5.88465 14.7155H3.80773V14.0948H5.88465V14.7155ZM8.65386 15.9569H6.57695V15.3362H8.65386V15.9569ZM8.65386 14.7155H6.57695V14.0948H8.65386V14.7155ZM11.4231 15.9569H9.34617V15.3362H11.4231V15.9569ZM11.4231 14.7155H9.34617V14.0948H11.4231V14.7155ZM14.1923 15.9569H12.1154V15.3362H14.1923V15.9569ZM14.1923 14.7155H12.1154V14.0948H14.1923V14.7155Z" fill="#5C626D"/>
    <path d="M15.9826 11.3018C15.7102 11.3018 15.4502 11.2286 15.2307 11.0926C15.0116 11.2286 14.7517 11.3018 14.4789 11.3018C13.9787 11.3018 13.5474 11.0489 13.3221 10.6811H10.9087C10.6833 11.0489 10.252 11.3018 9.75184 11.3018C9.47942 11.3018 9.21946 11.2286 9 11.0926C8.78088 11.2286 8.52092 11.3018 8.24815 11.3018C7.74796 11.3018 7.31666 11.0489 7.09131 10.6811H4.67794C4.45259 11.0489 4.02129 11.3018 3.5211 11.3018C3.24868 11.3018 2.98872 11.2286 2.76926 11.0926C2.55014 11.2286 2.29018 11.3018 2.01741 11.3018C1.51722 11.3018 1.08592 11.0489 0.860574 10.6811H0.346191V11.9225H0.649767H17.3502H17.6538V10.6811H17.1394C16.9141 11.0489 16.4828 11.3018 15.9826 11.3018Z" fill="#5C626D"/>
    <path d="M17.5098 8.19826L17.8151 7.92547C17.9342 7.8184 18 7.67595 18 7.5245C18 7.21137 17.7161 6.95689 17.3672 6.95689C17.2007 6.95689 17.0377 7.0174 16.9196 7.12292L15.7202 8.19826L16.9196 9.27329C17.0377 9.37912 17.2004 9.43963 17.3672 9.43963C17.7161 9.43963 18 9.18515 18 8.87201C18 8.72057 17.9342 8.57781 17.8148 8.47074L17.5098 8.19826Z" fill="#5C626D"/>
    <path d="M2.76925 7.75947L3.96867 6.68444C4.08809 6.57707 4.15386 6.43462 4.15386 6.28317C4.15386 5.97003 3.87002 5.71555 3.5211 5.71555C3.3546 5.71555 3.19156 5.77607 3.07352 5.88159L2.76925 6.15376L2.46533 5.88221C2.34695 5.77607 2.18426 5.71555 2.01741 5.71555C1.66849 5.71555 1.38464 5.97003 1.38464 6.28317C1.38464 6.43462 1.45041 6.57738 1.56983 6.68444L2.76925 7.75947Z" fill="#5C626D"/>
    <path d="M1.08034 9.2736L2.27976 8.19826L1.08034 7.12323C0.962303 7.0174 0.799612 6.95689 0.632766 6.95689C0.283845 6.95689 0 7.21137 0 7.5245C0 7.67595 0.0657689 7.81871 0.185191 7.92578L0.490151 8.19826L0.184845 8.47105C0.0657689 8.57812 0 8.72057 0 8.87201C0 9.18515 0.283845 9.43963 0.632766 9.43963C0.799612 9.43963 0.962303 9.37912 1.08034 9.2736Z" fill="#5C626D"/>
    <path d="M2.59899 5.2147C3.66029 2.89954 6.17405 1.37079 9.00003 1.37079C11.826 1.37079 14.3398 2.89954 15.4011 5.2147C15.5797 5.13649 15.7773 5.09491 15.9826 5.09491C16.0217 5.09491 16.0584 5.10235 16.0968 5.10515C14.9715 2.51161 12.1549 0.750099 9.00003 0.750099C5.85247 0.750099 3.02752 2.51347 1.90149 5.10546C1.94026 5.10235 1.97764 5.09491 2.01745 5.09491C2.22237 5.09491 2.42003 5.13649 2.59899 5.2147Z" fill="#5C626D"/>
    <path d="M14.4788 10.681C14.6453 10.681 14.8084 10.6205 14.9264 10.515L15.2307 10.2428L15.5346 10.5144C15.653 10.6205 15.8157 10.681 15.9825 10.681C16.3314 10.681 16.6153 10.4265 16.6153 10.1134C16.6153 9.96194 16.5495 9.81918 16.4301 9.71211L15.2307 8.63708L14.0313 9.71211C13.9118 9.81949 13.8461 9.96194 13.8461 10.1134C13.8461 10.4265 14.1299 10.681 14.4788 10.681Z" fill="#5C626D"/>
</svg>
