<svg width="68" height="68" viewBox="0 0 68 68" fill="none" xmlns="http://www.w3.org/2000/svg">
<path d="M34 0C15.2519 0 0 15.2519 0 34C0 52.7481 15.2519 68 34 68C52.7481 68 68 52.7481 68 34C68 15.2519 52.7481 0 34 0ZM34 66.1232C16.2875 66.1232 1.87682 51.7125 1.87682 34C1.87682 16.2875 16.2875 1.87682 34 1.87682C51.7125 1.87682 66.1232 16.2875 66.1232 34C66.1232 51.7125 51.7125 66.1232 34 66.1232Z" fill="#5C626D"/>
<path d="M34.0001 7.93652C19.6289 7.93652 7.93639 19.6291 7.93639 34.0004C7.93639 48.3716 19.6289 60.0642 34.0001 60.0642C48.3714 60.0642 60.0639 48.3716 60.0639 34.0004C60.0639 19.6291 48.3714 7.93652 34.0001 7.93652ZM34.0001 58.1874C20.6636 58.1874 9.8132 47.337 9.8132 34.0004C9.8132 20.6637 20.6636 9.81335 34.0001 9.81335C47.3367 9.81335 58.1871 20.6637 58.1871 34.0004C58.1871 47.337 47.3367 58.1874 34.0001 58.1874Z" fill="#5C626D"/>
<path d="M36.8813 29.0293V15.5595C36.8813 13.9713 35.5891 12.6792 34.0001 12.6792C32.411 12.6792 31.1188 13.9713 31.1188 15.5595V29.0198C29.8259 29.7719 28.8761 31.0077 28.4713 32.4545L21.1463 37.9393C20.1749 38.6633 19.5453 39.7245 19.374 40.9278C19.2035 42.1274 19.5087 43.3169 20.2317 44.2727C20.9521 45.2386 22.0087 45.8663 23.2074 46.0395C23.4282 46.0716 23.6491 46.0872 23.8681 46.0872C24.8395 46.0872 25.7798 45.7765 26.5679 45.1864L33.8379 39.7418C33.8919 39.7438 33.9461 39.752 34.0001 39.752C37.1718 39.752 39.7524 37.1714 39.7524 33.9996C39.7524 31.9377 38.6399 30.0546 36.8813 29.0293ZM32.9957 15.5595C32.9957 15.0151 33.4557 14.556 34.0001 14.556C34.5444 14.556 35.0045 15.0151 35.0045 15.5595V28.3418C34.3417 28.2281 33.6581 28.2282 32.9957 28.3418V15.5595ZM25.4425 43.6843C24.878 44.1077 24.1751 44.2855 23.4759 44.182C22.7739 44.0802 22.1562 43.7146 21.7328 43.1464C21.3104 42.5865 21.1326 41.8928 21.2325 41.1926C21.3324 40.4879 21.7008 39.8675 22.2699 39.4432L28.3267 34.9083C28.6291 36.7674 29.8356 38.356 31.4768 39.1645L25.4425 43.6843ZM34.0001 37.8752C33.8892 37.8752 33.7792 37.8688 33.6317 37.8504C31.665 37.6772 30.1245 35.9855 30.1245 33.9996C30.1245 33.7385 30.152 33.4782 30.2079 33.206C30.4627 31.9844 31.2966 30.9526 32.4385 30.4467C32.9196 30.2323 33.4447 30.1241 34.0001 30.1241C34.5554 30.1241 35.0805 30.2323 35.5616 30.4467C36.9674 31.0708 37.8756 32.4656 37.8756 33.9996C37.8756 36.1367 36.1372 37.8752 34.0001 37.8752Z" fill="#5C626D"/>
</svg>
