<svg width="17" height="18" viewBox="0 0 17 18" fill="none" xmlns="http://www.w3.org/2000/svg">
    <path d="M8.5 0.00689697C3.81298 0.00689697 0 3.81988 0 8.5069C0 13.1939 3.81298 17.0069 8.5 17.0069C13.187 17.0069 17 13.1939 17 8.5069C17 3.81988 13.187 0.00689697 8.5 0.00689697ZM8.5 16.5377C4.07187 16.5377 0.469206 12.935 0.469206 8.5069C0.469206 4.07877 4.07187 0.476103 8.5 0.476103C12.9281 0.476103 16.5308 4.07877 16.5308 8.5069C16.5308 12.935 12.9281 16.5377 8.5 16.5377Z" fill="#5C626D"/>
    <path d="M8.50004 1.99097C4.90724 1.99097 1.9841 4.91411 1.9841 8.50692C1.9841 12.0997 4.90724 15.0229 8.50004 15.0229C12.0928 15.0229 15.016 12.0997 15.016 8.50692C15.016 4.91411 12.0928 1.99097 8.50004 1.99097ZM8.50004 14.5537C5.16589 14.5537 2.4533 11.8411 2.4533 8.50692C2.4533 5.17277 5.16589 2.46017 8.50004 2.46017C11.8342 2.46017 14.5468 5.17277 14.5468 8.50692C14.5468 11.8411 11.8342 14.5537 8.50004 14.5537Z" fill="#5C626D"/>
    <path d="M9.22032 7.2643V3.89686C9.22032 3.49982 8.89728 3.17678 8.50002 3.17678C8.10275 3.17678 7.77971 3.49982 7.77971 3.89686V7.26193C7.45648 7.44995 7.21903 7.7589 7.11784 8.12059L5.28658 9.49181C5.04373 9.6728 4.88634 9.93811 4.84349 10.2389C4.80088 10.5388 4.87717 10.8362 5.05794 11.0752C5.23801 11.3166 5.50217 11.4736 5.80184 11.5169C5.85706 11.5249 5.91227 11.5288 5.96703 11.5288C6.20988 11.5288 6.44494 11.4511 6.64197 11.3036L8.45946 9.94243C8.47298 9.94292 8.48653 9.94498 8.50002 9.94498C9.29295 9.94498 9.93811 9.29982 9.93811 8.50689C9.93811 7.99139 9.65998 7.52063 9.22032 7.2643ZM8.24892 3.89686C8.24892 3.76077 8.36393 3.64599 8.50002 3.64599C8.6361 3.64599 8.75112 3.76077 8.75112 3.89686V7.09243C8.58543 7.06401 8.41452 7.06402 8.24892 7.09243V3.89686ZM6.36063 10.9281C6.2195 11.0339 6.04378 11.0784 5.86897 11.0525C5.69347 11.027 5.53906 10.9356 5.43321 10.7936C5.32759 10.6536 5.28315 10.4802 5.30812 10.3051C5.33309 10.129 5.42519 9.97385 5.56747 9.86777L7.08167 8.73405C7.15729 9.19883 7.45889 9.59598 7.8692 9.79811L6.36063 10.9281ZM8.50002 9.47578C8.47229 9.47578 8.4448 9.47417 8.40792 9.46959C7.91626 9.42629 7.53113 9.00336 7.53113 8.50689C7.53113 8.4416 7.538 8.37653 7.55198 8.30849C7.61567 8.00309 7.82416 7.74512 8.10962 7.61866C8.2299 7.56505 8.36118 7.53801 8.50002 7.53801C8.63885 7.53801 8.77013 7.56505 8.89041 7.61866C9.24186 7.77468 9.4689 8.12337 9.4689 8.50689C9.4689 9.04116 9.03429 9.47578 8.50002 9.47578Z" fill="#5C626D"/>
</svg>
