<svg width="98" height="69" viewBox="0 0 98 69" fill="none" xmlns="http://www.w3.org/2000/svg">
<path d="M42.9563 38.4946C35.3164 37.0536 29.2978 42.421 26.392 45.7493C26.0434 46.1472 26.075 46.7622 26.4622 47.1228C26.8494 47.4809 27.4448 47.4496 27.7946 47.0492C30.4372 44.0249 35.8802 39.1374 42.6183 40.4072C46.116 41.0668 47.4683 44.348 47.5665 47.1976C47.5841 47.7233 48.0029 48.1345 48.5082 48.1345C48.5187 48.1345 48.5304 48.1345 48.5421 48.1345C49.0627 48.1152 49.4686 47.6655 49.4511 47.1288C49.2931 42.5983 46.7442 39.2085 42.9563 38.4946Z" fill="#5C626D"/>
<path d="M80.3069 57.3727C80.1688 59.0067 80.6602 60.5454 81.6919 61.7067C82.719 62.8607 84.1532 63.4986 85.7301 63.4986C88.9154 63.4986 91.7347 60.8276 92.0131 57.544C92.1511 55.9112 91.6598 54.3737 90.6269 53.2124C89.5998 52.0584 88.1656 51.4229 86.5887 51.4229C83.4033 51.4229 80.5853 54.0915 80.3069 57.3727ZM86.5887 53.3655C87.6322 53.3655 88.5715 53.778 89.2371 54.5268C89.9074 55.2805 90.2268 56.291 90.1344 57.3715C89.9402 59.6772 87.9632 61.5523 85.7301 61.5523C84.6878 61.5523 83.7484 61.1399 83.0817 60.3911C82.4125 59.635 82.0932 58.6244 82.1844 57.5415C82.3798 55.2407 84.3556 53.3655 86.5887 53.3655Z" fill="#5C626D"/>
<path d="M97.9416 49.1216C95.9424 43.5275 92.4061 41.0337 86.4741 41.0337C84.875 41.0337 83.4115 41.3496 82.161 41.8175C82.9939 39.8881 83.1425 37.8586 82.6149 35.659C82.3505 34.5677 81.4545 31.7315 80.5058 28.7276C80.0367 27.2395 79.5547 25.7165 79.1441 24.384C79.3804 24.4008 79.6179 24.4129 79.8518 24.4129C80.8345 24.4129 81.7469 24.2115 82.1049 23.3469C82.691 21.936 82.9775 18.5318 82.636 17.0678L82.6208 16.9894C82.3634 15.5641 81.1632 15.2722 79.4377 15.2722C78.3568 15.2722 77.7099 15.4917 76.8665 16.1489L69.9308 17.5574C71.3579 16.3153 72.9126 14.8791 73.8929 13.7974C73.9139 13.789 73.935 13.7854 73.9549 13.7757C74.9644 13.2946 76.0839 12.8484 76.4618 12.7748C76.5214 12.8026 76.6103 12.8496 76.6817 12.887C77.2011 13.1631 78.0714 13.6262 79.5185 13.4465C81.541 13.1969 83.1928 10.9105 83.8549 8.70858C85.0633 8.82555 86.0284 8.92925 86.0506 8.93167C86.0658 8.93287 86.0799 8.93167 86.0951 8.93167C86.1325 8.93408 86.1688 8.93287 86.205 8.93167C86.2296 8.93046 86.2518 8.92805 86.2764 8.92443C86.3162 8.91961 86.3536 8.91117 86.3922 8.90031C86.4144 8.89428 86.4355 8.88825 86.4565 8.88102C86.4916 8.86775 86.5279 8.85328 86.5606 8.8364C86.5829 8.82555 86.6028 8.81469 86.6238 8.80264C86.6531 8.78455 86.6835 8.76405 86.7115 8.74234C86.7338 8.72667 86.7525 8.71099 86.7712 8.6929C86.7958 8.66999 86.8203 8.64587 86.8437 8.62055C86.8636 8.59884 86.8812 8.57713 86.8976 8.55422C86.9174 8.5289 86.9338 8.50237 86.9502 8.47584C86.9677 8.4481 86.9818 8.42037 86.9946 8.39143C87.0087 8.3649 87.0192 8.33716 87.0297 8.30822C87.0426 8.27566 87.0531 8.2431 87.0602 8.20813C87.0648 8.19366 87.0707 8.1804 87.0742 8.16472C87.0765 8.15025 87.0765 8.13578 87.0777 8.12131C87.0812 8.10322 87.0882 8.08513 87.0894 8.06704C87.0917 8.04534 87.0882 8.02484 87.0894 8.00434C87.1303 7.3821 86.6776 6.8503 86.1536 6.24373C86.0003 6.06647 85.7547 5.78308 85.6564 5.63235C85.4727 3.40386 84.1707 0.709898 81.0684 0.258894C77.276 -0.293404 74.252 1.81088 73.0085 5.7867C72.8412 5.765 72.6716 5.75655 72.5043 5.73967C72.447 5.73003 72.3909 5.71314 72.3335 5.70711C72.2669 5.69988 72.2037 5.69988 72.1405 5.70711C65.6446 5.17531 58.5732 7.76316 53.3091 12.6989C47.2027 18.4269 45.8025 24.4611 47.0869 27.6447C47.2343 28.0113 47.5549 28.3887 47.9924 28.7638H44.8842L45.9534 16.1646C45.9768 15.8933 45.8879 15.6232 45.7089 15.423C45.5311 15.2216 45.2784 15.107 45.0141 15.107H40.501L38.9369 5.51899C38.9229 5.43579 38.8995 5.3562 38.8656 5.27902C37.6701 2.55853 35.2123 0.918517 32.2937 0.893193C30.1974 0.870281 28.3865 1.75782 27.7747 3.09033C27.6765 3.30256 27.577 3.59921 27.5501 3.95736C25.6539 3.7186 23.7436 4.4361 23.0335 5.85785C22.83 6.26544 22.4416 7.37486 23.3728 8.65311C22.8662 8.87137 22.3913 9.2042 21.9819 9.64556C20.9735 10.7309 20.6881 12.1357 21.2519 13.2246C21.7713 14.2255 23.133 15.2783 26.6587 14.7079L27.5022 15.1697C27.1711 15.2976 26.9255 15.6111 26.8927 15.9946L25.7334 29.6513C25.71 29.9226 25.7989 30.1915 25.9779 30.3929C26.1557 30.5931 26.4084 30.7077 26.6728 30.7077H32.9932C32.9382 30.821 32.8832 30.9344 32.8423 31.0537L31.5848 34.6992C31.559 34.7751 31.545 34.8499 31.538 34.9259C21.8017 42.2167 17.098 51.6636 18.1403 54.9847C18.414 55.8589 19.0913 56.3787 19.9488 56.3787H23.3669C23.3096 56.7103 23.2663 57.0455 23.2382 57.3747C22.9891 60.3099 23.8699 63.0702 25.7182 65.1491C27.5571 67.2196 30.1307 68.3592 32.964 68.3592C38.7486 68.3592 43.8677 63.5079 44.3742 57.5436C44.4081 57.1553 44.4151 56.7646 44.4081 56.3775H68.2252C70.1659 56.3775 71.524 55.9301 72.6073 55.1909C72.695 55.3657 72.8015 55.5225 72.9266 55.6648C73.3361 56.1266 73.9315 56.3787 74.603 56.3787H75.7248C75.6663 56.7103 75.6207 57.0431 75.5938 57.3747C75.3446 60.3099 76.2255 63.0702 78.0737 65.1491C79.9127 67.2196 82.4851 68.3592 85.3195 68.3592C91.1041 68.3592 96.2232 63.5079 96.7297 57.5436C96.9531 54.899 96.2595 52.4089 94.796 50.4421C96.1834 50.4372 97.0643 50.4324 97.0643 50.4324C97.3708 50.43 97.6585 50.2744 97.834 50.0128C98.0071 49.7499 98.0481 49.4207 97.9416 49.1216ZM79.2939 11.5171C78.4177 11.6244 77.9755 11.3893 77.5462 11.1602C77.2947 11.0263 77.0338 10.8876 76.7191 10.8382C76.5823 10.8165 76.2594 10.7682 75.2592 11.1204C75.354 10.5451 75.3715 9.94341 75.2896 9.34529C75.7037 9.40558 76.1529 9.45261 76.5729 9.45261C77.1929 9.45261 77.8316 9.12943 78.4493 8.81831C78.7616 8.66034 79.2833 8.39625 79.4623 8.39143C79.9922 8.39143 80.9222 8.45413 81.9177 8.53613C81.3469 10.0881 80.232 11.4013 79.2939 11.5171ZM80.8029 2.18229C83.4408 2.56456 83.7485 5.34052 83.7835 5.89282C83.8034 6.20756 83.938 6.49215 84.1392 6.78277C82.5295 6.62721 80.4344 6.44512 79.4646 6.44512C78.8563 6.44512 78.2282 6.76347 77.621 7.07098C77.2993 7.23377 76.7601 7.5063 76.5741 7.50751C75.8757 7.50751 75.0136 7.33507 74.5608 7.23377C74.5796 7.18915 74.5959 7.14454 74.6076 7.09751C75.4312 3.5751 77.7509 1.73852 80.8029 2.18229ZM54.5772 14.1351C59.5231 9.49844 66.157 7.08906 72.1979 7.65463C72.7523 7.76678 73.0764 8.42881 73.1933 8.71943C73.6379 9.83729 73.5209 11.247 72.9231 11.9995C71.5392 13.7408 67.1396 17.4694 65.9488 18.3666L64.6597 18.6282C64.1485 18.7319 63.8162 19.2432 63.9168 19.7702C64.0186 20.2972 64.5123 20.6385 65.0235 20.536L77.0467 18.0928C77.3508 18.293 77.8012 18.6656 77.7684 19.0419C77.7439 19.3265 77.0549 19.8269 76.2886 20.144C75.5751 19.8426 74.052 19.3855 72.495 20.1042C70.2969 21.1172 64.056 23.6592 62.4523 23.775C61.9083 23.8112 61.4029 23.6544 61.0555 23.3397C60.721 23.0358 60.535 22.5884 60.5022 22.0108C60.4414 20.8808 63.4208 15.4049 66.1535 13.0353C66.5524 12.6904 66.6039 12.0766 66.2693 11.6654C65.9347 11.2554 65.3393 11.2012 64.9404 11.5472C62.1107 14.0012 58.5077 20.0271 58.62 22.1193C58.6329 22.3424 58.6633 22.5546 58.703 22.762C58.6586 22.7524 58.613 22.7403 58.5709 22.7319C57.0922 22.3255 52.0656 21.4778 49.0779 22.0891C49.9097 19.6617 51.6913 16.8411 54.5772 14.1351ZM59.5792 36.5526C59.9372 36.4272 60.1957 36.0871 60.2144 35.6795C60.2378 35.6361 60.2659 35.6 60.2811 35.5517L60.9315 33.6693C61.7317 33.7971 62.4979 33.9129 63.1097 34.0022C61.7586 36.6069 58.613 42.7352 56.9156 46.5458C56.2897 47.9543 56.1973 49.1011 56.1868 49.7728H55.6698C54.6111 49.7728 53.7887 49.071 53.412 47.8458C52.5663 45.0939 54.156 40.5501 59.5792 36.5526ZM58.6282 47.3574C60.7935 42.4989 65.3639 33.7803 65.4107 33.691C65.5581 33.4101 65.5616 33.0712 65.4224 32.7866C65.2808 32.502 65.0118 32.3067 64.7041 32.2645C64.6585 32.2584 60.1103 31.6446 57.8105 31.1189C54.9562 30.4653 49.2908 27.9148 48.8276 26.8946C48.5433 26.1904 48.4556 25.2992 48.5679 24.2863C49.2932 23.529 54.8918 23.7195 58.1018 24.6131C58.1123 24.6155 58.124 24.6155 58.1322 24.6179C58.1404 24.6203 58.1509 24.6251 58.1603 24.6263C60.7327 25.1618 67.1116 28.5371 68.3223 29.8237C70.2841 31.9099 69.7998 32.9892 68.7727 34.7184C67.6298 36.6406 61.3632 46.3131 61.3 46.412C61.1199 46.6893 61.0906 47.0451 61.2251 47.3514C61.3585 47.6553 61.6357 47.8699 61.9574 47.9145C62.7903 48.0303 64.6737 48.5573 65.1849 49.4339C65.2364 49.5208 65.2843 49.6293 65.3019 49.7728H58.0725C58.0831 49.241 58.1638 48.4029 58.6282 47.3574ZM67.1876 49.739C67.1642 49.2796 67.0379 48.8394 66.8016 48.4343C66.1289 47.2826 64.7193 46.6471 63.6326 46.3119C65.3592 43.6457 69.4523 37.3015 70.3823 35.735C71.6305 33.6307 72.5172 31.4927 69.6758 28.4719C68.9002 27.6471 66.8647 26.3821 64.6643 25.2389C67.2777 24.4406 71.0362 22.8597 72.6283 22.1627C73.563 25.2823 75.8032 32.7697 76.4068 34.9572C77.2058 37.8465 76.1459 39.905 75.2791 41.2001C74.8287 41.8742 74.5035 42.3638 74.2181 42.7943C73.5806 43.7506 73.1419 44.415 71.951 46.1551C70.3367 48.5163 69.622 49.5473 67.1876 49.739ZM31.4011 15.1046L28.6135 13.5756L37.3074 7.25789L38.5872 15.1034H31.4011V15.1046ZM30.484 6.6875C31.0268 6.0327 33.2494 5.92176 34.9257 6.61153L31.7111 8.94734C30.5483 7.78848 30.2418 6.97812 30.484 6.6875ZM29.8102 10.3281L27.3758 12.0971C26.4856 11.4942 26.2809 11.0577 26.2856 10.925C26.2891 10.843 26.4412 10.644 26.833 10.4619C27.6098 10.1002 28.7831 10.0302 29.8102 10.3281ZM29.4791 3.91878C29.7283 3.37612 30.8548 2.83468 32.2785 2.83468C33.0107 2.84071 35.3246 3.05536 36.7307 5.29952L36.657 5.35379C34.7222 4.13463 31.5193 3.77769 29.7575 4.83043C29.747 4.81596 29.7435 4.79908 29.7318 4.78461C29.3165 4.2721 29.4382 4.00681 29.4791 3.91878ZM24.7087 6.74539C25.0912 5.97844 27.0179 5.45146 28.5784 6.27268C28.5854 6.27629 28.5936 6.2787 28.6018 6.28232C28.4614 6.78156 28.4637 7.41827 28.8205 8.20693C27.8929 8.16231 26.9991 8.31425 26.2727 8.60849C25.1076 7.93439 24.4806 7.20242 24.7087 6.74539ZM22.9142 12.3058C22.7481 11.9874 22.9294 11.4327 23.3424 10.9877C23.6266 10.6826 24.029 10.4234 24.4923 10.3305C24.4431 10.4957 24.4092 10.6657 24.4022 10.8418C24.373 11.5545 24.6888 12.2442 25.338 12.9027C23.8559 12.9991 23.1061 12.6772 22.9142 12.3058ZM28.6942 17.0485H31.1636C31.1636 17.0485 31.1648 17.0485 31.166 17.0485C31.166 17.0485 31.166 17.0485 31.1671 17.0485H43.9846L42.9903 28.7601H35.8885H27.6999L28.6942 17.0485ZM43.8548 30.7052H51.2C53.6226 31.8653 56.3845 32.7842 57.4022 33.0169C57.8795 33.1267 58.4469 33.2376 59.04 33.3461L58.5861 34.6654H33.5945L34.6181 31.7013C34.797 31.1804 35.403 30.7052 35.8896 30.7052H43.8548ZM42.4943 57.3723C42.0708 62.3587 37.7941 66.4117 32.9628 66.4117C30.6641 66.4117 28.5854 65.4952 27.1068 63.8347C25.62 62.1597 24.9134 59.9276 25.1158 57.5412C25.1485 57.1529 25.2152 56.7633 25.2959 56.375H28.1198C28.0391 56.7018 27.9794 57.0371 27.9502 57.3711C27.8122 59.0051 28.3035 60.5438 29.3364 61.7051C30.3635 62.8591 31.7977 63.497 33.3746 63.497C36.5611 63.497 39.3791 60.826 39.6575 57.5412C39.6915 57.148 39.6845 56.7597 39.6447 56.375H42.52C42.5259 56.7055 42.5224 57.0395 42.4943 57.3723ZM37.7414 56.375C37.7917 56.7006 37.8069 57.0323 37.7789 57.3711C37.5835 59.6768 35.6077 61.5519 33.3746 61.5519C32.3323 61.5519 31.3929 61.1395 30.7261 60.3907C30.0558 59.6346 29.7376 58.624 29.8289 57.5436C29.8628 57.1432 29.9506 56.7549 30.0909 56.375H37.7414ZM19.9499 54.43C19.9102 54.3359 19.8259 54.0417 19.9207 53.3579C20.3594 50.2045 24.1624 42.9004 32.4937 36.6093H56.4722C51.6211 41.0168 50.7496 45.6089 51.6152 48.4331C52.2376 50.459 53.7899 51.7191 55.6709 51.7191H66.2716C70.4572 51.7191 71.5989 50.0465 73.494 47.2766C74.693 45.5244 75.1352 44.8552 75.7763 43.8917C76.0605 43.4636 76.3857 42.9728 76.8338 42.3023C78.5323 39.7639 78.9862 37.1857 78.2223 34.4242C77.6187 32.2379 75.409 24.8434 74.4567 21.6695C75.2007 21.7165 75.7763 22.0349 75.7809 22.0373C76.0079 22.1699 76.2816 22.2001 76.5308 22.1181C77.0244 21.9577 79.4915 21.0617 79.6495 19.2083C79.7173 18.4172 79.4026 17.7528 78.9675 17.2391C79.1043 17.221 79.2576 17.2137 79.4424 17.2137C80.2671 17.2137 80.6309 17.2993 80.7713 17.3476C80.783 17.4067 80.7947 17.4646 80.8064 17.5212C81.024 18.4534 80.8473 21.2149 80.4356 22.4208C80.0484 22.5197 79.0798 22.4292 78.6446 22.3894C78.3276 22.3593 78.0515 22.3339 77.8328 22.3339C77.8176 22.3339 77.8047 22.3376 77.7883 22.3388C77.7579 22.34 77.7252 22.3436 77.6936 22.3484C77.6596 22.3532 77.6281 22.3593 77.5965 22.3689C77.5824 22.3725 77.5684 22.3725 77.5544 22.3774C77.5403 22.381 77.5286 22.3894 77.5134 22.3954C77.483 22.4075 77.4514 22.4208 77.421 22.4352C77.3953 22.4497 77.3684 22.463 77.3438 22.4787C77.3192 22.4955 77.2923 22.5136 77.2689 22.5317C77.2444 22.551 77.2198 22.5715 77.1964 22.592C77.1742 22.6125 77.1555 22.6342 77.1344 22.6571C77.1133 22.6812 77.0958 22.7042 77.0771 22.7307C77.0584 22.756 77.0432 22.7813 77.0268 22.8079C77.0104 22.8344 76.9964 22.8609 76.9847 22.8887C76.9718 22.9176 76.9601 22.9453 76.9496 22.9755C76.939 23.0056 76.9297 23.0358 76.9227 23.0671C76.9145 23.0961 76.9098 23.1238 76.9051 23.1539C76.8993 23.1889 76.8969 23.2239 76.8946 23.2601C76.8946 23.2745 76.8911 23.2878 76.8911 23.3035C76.8911 23.318 76.8946 23.3312 76.8946 23.3469C76.8969 23.3807 76.8993 23.4156 76.9051 23.4494C76.9098 23.482 76.9157 23.5145 76.9238 23.5471C76.9274 23.5615 76.9285 23.576 76.9332 23.5905C77.4128 25.1907 78.0773 27.2938 78.7183 29.3257C79.6167 32.1644 80.5432 35.0995 80.79 36.1245C81.3504 38.4531 80.9912 40.4669 79.66 42.4591C78.4703 44.2378 76.6595 46.9076 74.2766 50.389C73.6847 51.256 73.1793 51.988 72.6506 52.5861C72.5979 52.6332 72.5511 52.685 72.509 52.7441C71.4819 53.8415 70.325 54.4275 68.2276 54.4275L19.9499 54.43ZM94.8487 57.3723C94.4264 62.3587 90.1484 66.4117 85.3171 66.4117C83.0185 66.4117 80.9398 65.4952 79.4611 63.8347C77.9743 62.1597 77.2678 59.9276 77.469 57.5412C77.5076 57.0938 77.5848 56.6464 77.6854 56.2062C78.6388 55.8203 79.6085 54.8098 80.7678 53.5967C82.1014 52.2027 83.759 50.4662 84.9323 50.4662C87.3807 50.4662 90.0256 50.459 92.219 50.4493C94.1199 52.1412 95.0803 54.6494 94.8487 57.3723ZM84.9311 48.5211C82.9694 48.5211 81.0848 50.4927 79.4225 52.2328C78.6423 53.0504 77.3368 54.4167 76.8829 54.4324H74.6006C74.5211 54.4324 74.3795 54.4203 74.3152 54.3504C74.245 54.2708 74.1853 54.0706 74.1807 53.7354C74.7445 53.0709 75.2639 52.3196 75.8137 51.5141C77.5625 48.9588 79.0014 46.8413 80.1174 45.188C80.1455 45.1687 80.1771 45.1506 80.204 45.1265C81.3457 44.1353 83.6736 42.9764 86.4753 42.9764C91.1439 42.9764 93.8883 44.5947 95.65 48.4921C93.4215 48.5042 88.9143 48.5211 84.9311 48.5211Z" fill="#5C626D"/>
<path d="M12.1602 28.2405H21.4742C21.9947 28.2405 22.417 27.8052 22.417 27.2686C22.417 26.732 21.9947 26.2966 21.4742 26.2966H12.1602C11.6397 26.2966 11.2174 26.732 11.2174 27.2686C11.2174 27.8052 11.6408 28.2405 12.1602 28.2405Z" fill="#5C626D"/>
<path d="M23.9705 33.9178C23.9705 33.3811 23.5482 32.9458 23.0277 32.9458H1.13722C0.616664 32.9458 0.194366 33.3799 0.194366 33.9178C0.194366 34.4556 0.616664 34.8909 1.13722 34.8909H23.0265C23.5482 34.8909 23.9705 34.4544 23.9705 33.9178Z" fill="#5C626D"/>
<path d="M14.6028 39.769H5.93807C5.41751 39.769 4.99521 40.202 4.99521 40.7398C4.99521 41.2776 5.41751 41.7129 5.93807 41.7129H14.6039C15.1245 41.7129 15.5468 41.2776 15.5468 40.7398C15.5468 40.202 15.1245 39.769 14.6028 39.769Z" fill="#5C626D"/>
</svg>
