<svg width="74" height="68" viewBox="0 0 74 68" fill="none" xmlns="http://www.w3.org/2000/svg">
<path d="M42.1004 66.6445H11.9323C10.8654 66.6445 10.0356 65.8856 10.0356 64.9099V41.0583C10.0356 39.6489 11.9323 39.432 15.0143 39.2694C18.2741 37.589 20.5856 35.5833 21.8895 33.2523C22.3637 32.385 22.9564 31.0298 23.5491 29.6204C25.3864 25.3921 26.3347 23.4948 27.4608 22.9528C28.6462 22.4107 29.7723 22.4649 29.8909 22.4649C29.9501 22.4649 29.9501 22.4649 30.0094 22.4649H30.1279C30.1279 22.4649 30.0687 22.4649 30.0094 22.4649C30.0687 22.4649 30.1279 22.4649 30.1872 22.4649C32.0838 22.6817 33.8026 24.2538 34.4546 26.3679C35.1066 28.753 35.5215 32.385 33.8619 36.3422C33.447 37.3721 32.9136 38.3479 32.3802 39.2152C37.4773 39.2152 49.9832 39.2152 50.1017 39.2152C52.9466 39.2152 55.3174 40.9499 55.4952 43.1724C55.6138 44.2023 55.1989 45.2323 54.3691 46.0996C53.7764 46.6959 53.0059 47.1838 52.1169 47.4548C52.7688 48.2137 53.0652 49.1353 53.0059 50.111C52.8874 51.8999 51.3464 53.3635 49.2719 53.8514C49.8646 54.6103 50.1017 55.4776 50.0424 56.3992C49.9239 58.0796 48.5607 59.489 46.6641 60.0311C47.3161 60.79 47.6124 61.7116 47.5531 62.6331C47.3161 64.9099 44.9453 66.6445 42.1004 66.6445ZM12.4064 64.4762H42.1004C43.7006 64.4762 45.0046 63.6089 45.1231 62.5247C45.1824 61.9284 44.8267 61.4947 44.5897 61.2237C44.0562 60.6816 43.1672 60.3564 42.2782 60.3564C41.6262 60.3564 41.0928 59.8685 41.0928 59.2722C41.0928 58.6759 41.6262 58.188 42.2782 58.188H44.6489C46.2492 58.188 47.5531 57.3207 47.6717 56.2366C47.7309 55.6403 47.3753 55.2066 47.1382 54.9356C46.6048 54.3935 45.7158 54.0682 44.8267 54.0682C44.1748 54.0682 43.6414 53.5804 43.6414 52.9841C43.6414 52.3878 44.1748 51.8999 44.8267 51.8999H47.6717C49.2719 51.8999 50.5759 51.0326 50.6944 49.9484C50.7537 49.3521 50.3981 48.9185 50.161 48.6474C49.6276 48.1053 48.7385 47.7801 47.8495 47.7801C47.1975 47.7801 46.6641 47.2922 46.6641 46.6959C46.6641 46.0996 47.1975 45.6118 47.8495 45.6118H50.2203C51.1093 45.5575 52.0576 45.2323 52.591 44.6902C52.8281 44.4192 53.1244 43.9855 53.1244 43.3892C53.0652 42.3593 51.6427 41.4377 50.1017 41.4377C49.9239 41.4377 34.5139 41.4377 30.9577 41.4377C30.365 41.4377 29.8316 41.1667 29.5353 40.6788C29.2389 40.1909 29.2982 39.6489 29.5945 39.2152C30.365 38.1852 31.017 36.9927 31.6097 35.6375C33.0321 32.2224 32.6765 29.0783 32.0838 27.0184C31.669 25.7716 30.7206 24.7958 29.7723 24.6874C29.7131 24.6874 29.6538 24.6874 29.5945 24.6874C29.476 24.6874 29.0018 24.6874 28.5277 24.9043C27.935 25.4463 26.5718 28.5904 25.742 30.4335C25.0901 31.8971 24.4974 33.2523 23.9639 34.2281C22.4229 37.0469 19.6965 39.432 15.9033 41.3293C15.7255 41.3835 15.607 41.4377 15.4292 41.4377C13.7103 41.5461 12.8806 41.6546 12.4064 41.7088V64.4762Z" fill="#5C626D"/>
<path d="M6.24244 45.3951H6.12391C5.11633 45.3951 4.34583 44.6904 4.34583 43.7688V43.6604C4.34583 42.7389 5.11633 42.0342 6.12391 42.0342H6.24244C7.25002 42.0342 8.02052 42.7389 8.02052 43.6604V43.7688C8.02052 44.6362 7.25002 45.3951 6.24244 45.3951ZM5.64975 43.7146C5.70902 43.9857 5.88683 44.1483 6.18317 44.2025C6.47952 44.2025 6.65733 43.9857 6.7166 43.7146C6.65733 43.4436 6.47952 43.281 6.18317 43.2268C5.9461 43.2268 5.70902 43.4436 5.64975 43.7146Z" fill="#5C626D"/>
<path d="M8.79106 68.0001H3.99024C2.03435 68.0001 0.434082 66.4822 0.434082 64.5849V41.3839C0.434082 39.4866 2.03435 37.9688 3.99024 37.9688H8.79106C10.8062 37.9688 12.3472 39.4866 12.3472 41.3839V64.5849C12.4065 66.4822 10.7469 68.0001 8.79106 68.0001ZM3.99024 40.1371C3.33828 40.1371 2.80486 40.6792 2.80486 41.3839V64.5849C2.80486 65.2896 3.33828 65.8317 3.99024 65.8317H8.79106C9.44302 65.8317 9.97645 65.2896 9.97645 64.5849V41.3839C9.97645 40.6792 9.44302 40.1371 8.79106 40.1371H3.99024Z" fill="#5C626D"/>
<path d="M45.4193 15.8514C45.1823 15.8514 45.0045 15.7972 44.8267 15.6887C44.4118 15.4719 44.1747 14.984 44.2932 14.5504L44.8859 11.6773H41.5076C40.0851 11.6773 38.959 10.6474 38.959 9.40059V3.05824C38.959 1.81145 40.0851 0.781494 41.5076 0.781494H71.4386C72.8018 0.781494 73.9279 1.75724 73.9872 3.00403V9.40059C73.9872 10.6474 72.861 11.6773 71.4386 11.6773H51.5834L46.1898 15.6345C45.9528 15.7972 45.6564 15.8514 45.4193 15.8514ZM41.4483 2.94982C41.3298 2.94982 41.2705 3.00403 41.2705 3.05824V9.40059C41.2705 9.4548 41.3298 9.50901 41.4483 9.50901H46.2491C46.6047 9.50901 46.9603 9.67163 47.1382 9.88846C47.3752 10.1595 47.4345 10.4848 47.3752 10.7558L47.1382 12.111L50.398 9.72584C50.635 9.56321 50.8721 9.50901 51.1092 9.50901H71.32C71.4386 9.50901 71.4979 9.4548 71.4979 9.40059V3.05824C71.4979 3.05824 71.4386 2.94982 71.32 2.94982H41.4483Z" fill="#5C626D"/>
<path d="M60.3554 7.61168H45.0046C44.3526 7.61168 43.8192 7.12381 43.8192 6.52752C43.8192 5.93123 44.3526 5.44336 45.0046 5.44336H60.3554C61.0073 5.44336 61.5407 5.93123 61.5407 6.52752C61.5407 7.12381 61.0666 7.61168 60.3554 7.61168Z" fill="#5C626D"/>
<path d="M67.8232 7.61168H63.9707C63.3187 7.61168 62.7853 7.12381 62.7853 6.52752C62.7853 5.93123 63.3187 5.44336 63.9707 5.44336H67.8232C68.4751 5.44336 69.0086 5.93123 69.0086 6.52752C69.0086 7.12381 68.4751 7.61168 67.8232 7.61168Z" fill="#5C626D"/>
<path d="M67.4083 33.794C67.1713 33.794 66.8749 33.7398 66.6971 33.5772L61.3036 29.62H41.4484C40.0259 29.62 38.8998 28.59 38.8998 27.3432V21.0009C38.959 19.6999 40.0852 18.7241 41.4484 18.7241H71.3794C72.8018 18.7241 73.928 19.7541 73.928 21.0009V27.3432C73.928 28.59 72.8018 29.62 71.3794 29.62H68.001L68.5937 32.493C68.653 32.9267 68.4752 33.3603 68.0603 33.6314C67.8232 33.7398 67.5861 33.794 67.4083 33.794ZM41.4484 20.8924C41.3298 20.8924 41.2706 21.0009 41.2706 21.0551V27.3432C41.2706 27.3974 41.3298 27.4516 41.4484 27.4516H61.6592C61.9556 27.4516 62.1926 27.56 62.3704 27.6685L65.6303 30.0536L65.3932 28.6984C65.3339 28.3732 65.4524 28.0479 65.6303 27.8311C65.8673 27.5601 66.1637 27.4516 66.5193 27.4516H71.3201C71.4386 27.4516 71.4979 27.3974 71.4979 27.3432V21.0009C71.4979 20.9467 71.4386 20.8924 71.3201 20.8924H41.4484Z" fill="#5C626D"/>
<path d="M67.8232 25.5546H52.4132C51.7612 25.5546 51.2278 25.0667 51.2278 24.4704C51.2278 23.8741 51.7612 23.3862 52.4132 23.3862H67.7639C68.4159 23.3862 68.9493 23.8741 68.9493 24.4704C68.9493 25.0667 68.4752 25.5546 67.8232 25.5546Z" fill="#5C626D"/>
<path d="M48.857 25.5548H45.0045C44.3525 25.5548 43.8191 25.0669 43.8191 24.4706C43.8191 23.8743 44.3525 23.3865 45.0045 23.3865H48.857C49.5089 23.3865 50.0424 23.8743 50.0424 24.4706C50.0424 25.0669 49.5089 25.5548 48.857 25.5548Z" fill="#5C626D"/>
</svg>
