<svg width="21" height="17" viewBox="0 0 21 17" fill="none" xmlns="http://www.w3.org/2000/svg">
    <path d="M10.1437 2.44558L10.5129 2.82076L10.8686 2.43265C14.4337 -1.45757 20.5 0.881779 20.5 6.33258C20.5 7.65439 19.9102 8.95199 18.9635 10.1794C18.0183 11.4049 16.7459 12.5225 15.4538 13.4728C14.1643 14.4211 12.8719 15.1905 11.9002 15.7233C11.415 15.9894 11.0111 16.1957 10.7294 16.3352C10.6402 16.3793 10.5633 16.4167 10.5 16.4472C10.4367 16.4167 10.3598 16.3793 10.2706 16.3352C9.98892 16.1957 9.58505 15.9894 9.09978 15.7233C8.12811 15.1905 6.8357 14.4211 5.54622 13.4728C4.25408 12.5225 2.98174 11.4049 2.03654 10.1794C1.08978 8.95199 0.5 7.65439 0.5 6.33258C0.5 3.59689 2.0236 1.73524 3.97188 0.992017C5.92967 0.245165 8.34393 0.617156 10.1437 2.44558Z" stroke="#5C626D"/>
</svg>
