<svg width="71" height="69" viewBox="0 0 71 69" fill="none" xmlns="http://www.w3.org/2000/svg">
<path d="M14.3565 46.7654C14.3164 46.7094 14.2705 46.6578 14.2195 46.6114C14.1042 46.495 13.9556 46.4172 13.7943 46.3886C13.6953 46.3691 13.5936 46.3674 13.494 46.3835C13.3947 46.3976 13.2984 46.428 13.2091 46.4736L0.428807 53.7747C0.232893 53.8866 0.0894489 54.0717 0.0300322 54.2894C-0.0293845 54.507 9.26096e-05 54.7394 0.111979 54.9353C0.223866 55.1312 0.408997 55.2746 0.626646 55.3341C0.844294 55.3935 1.07663 55.364 1.27255 55.2521L13.3401 48.3627L25.8099 68.5648C25.8659 68.665 25.9417 68.7528 26.0326 68.823C26.1234 68.8931 26.2276 68.9441 26.3387 68.9729C26.4498 69.0017 26.5656 69.0078 26.6791 68.9906C26.7926 68.9735 26.9015 68.9336 26.9992 68.8733C27.0968 68.8129 27.1813 68.7335 27.2474 68.6396C27.3135 68.5458 27.36 68.4396 27.384 68.3273C27.408 68.215 27.409 68.0991 27.3869 67.9864C27.3649 67.8738 27.3203 67.7667 27.2558 67.6718L14.3565 46.7654Z" fill="#5C626D"/>
<path d="M69.9063 7.53661C69.7944 7.34086 69.6093 7.19756 69.3918 7.13823C69.1742 7.0789 68.942 7.10839 68.7462 7.22021L56.0357 14.4805C55.1903 10.4668 52.9224 6.89408 49.6502 4.42097C46.3779 1.94785 42.3219 0.741098 38.2299 1.02319C34.1379 1.30528 30.2858 3.05719 27.3839 5.95593C24.482 8.85467 22.7258 12.7048 22.4392 16.7965L13.3086 22.1073L1.84837 3.5365C1.72579 3.35361 1.53707 3.22538 1.32189 3.17877C1.10671 3.13217 0.881842 3.17081 0.694573 3.28659C0.507304 3.40237 0.372226 3.58625 0.317745 3.79957C0.263263 4.01289 0.293623 4.23903 0.402442 4.43042L19.9479 36.1064C20.0646 36.2935 20.2489 36.4283 20.4626 36.4826C20.6762 36.537 20.9026 36.5067 21.0945 36.3981L29.3192 31.6997C30.4656 32.5538 31.7161 33.2587 33.0404 33.7972L33.5447 34.8595L24.2126 40.1898C24.1402 40.2374 24.0747 40.2947 24.0178 40.36C23.8997 40.4945 23.8261 40.6623 23.8072 40.8404C23.7883 41.0184 23.8251 41.1979 23.9123 41.3542L31.5851 54.3506C31.6906 54.526 31.8534 54.6597 32.0461 54.729C32.1609 54.768 32.2826 54.7825 32.4033 54.7715C32.524 54.7605 32.6411 54.7243 32.7469 54.6653L68.975 33.8916C69.0719 33.836 69.1569 33.7619 69.2252 33.6735C69.2934 33.5851 69.3436 33.4841 69.3728 33.3762C69.402 33.2684 69.4097 33.1559 69.3955 33.0451C69.3812 32.9344 69.3453 32.8275 69.2897 32.7306C69.2341 32.6337 69.16 32.5487 69.0716 32.4804C68.9832 32.4122 68.8822 32.362 68.7744 32.3328C68.6666 32.3036 68.5541 32.2958 68.4433 32.3101C68.3325 32.3244 68.2256 32.3603 68.1287 32.4159L32.6287 52.7719L25.8158 41.2326L34.2754 36.4007L38.6301 45.5865C38.699 45.7322 38.8079 45.8553 38.944 45.9415C39.0801 46.0277 39.2379 46.0735 39.399 46.0735C39.5602 46.0735 39.718 46.0277 39.8541 45.9415C39.9902 45.8553 40.099 45.7322 40.1679 45.5865L45.75 33.7938C47.8443 32.9406 49.7487 31.6806 51.353 30.0868C52.9573 28.493 54.2297 26.597 55.0967 24.5084L69.3161 16.3857C69.5062 16.2709 69.644 16.0864 69.6999 15.8715C69.7558 15.6565 69.7254 15.4282 69.6152 15.2354C69.505 15.0426 69.3238 14.9005 69.1102 14.8395C68.8967 14.7785 68.6677 14.8035 68.4723 14.9091L55.8996 22.0911C56.2365 20.7563 56.4078 19.3852 56.4099 18.0085C56.4108 17.4288 56.3824 16.8494 56.3249 16.2725L69.5933 8.6942C69.7878 8.58171 69.9299 8.39684 69.9886 8.17995C70.0472 7.96306 70.0176 7.73178 69.9063 7.53661ZM20.9643 34.5133L14.2025 23.5558L22.4103 18.7825C22.6288 23.274 24.6069 27.4988 27.9167 30.543L20.9643 34.5133ZM44.8238 32.3325C44.6183 32.4105 44.4509 32.5651 44.3569 32.7637L39.399 43.239L34.4336 32.7637C34.3395 32.5651 34.1721 32.4105 33.9666 32.3325C30.6176 31.0625 27.8199 28.6585 26.0603 25.5387C24.3007 22.419 23.6906 18.7811 24.3362 15.258C24.9817 11.7349 26.8421 8.5497 29.5936 6.2566C32.3451 3.96351 35.8135 2.7077 39.3952 2.7077C42.977 2.7077 46.4453 3.96351 49.1968 6.2566C51.9483 8.5497 53.8087 11.7349 54.4543 15.258C55.0998 18.7811 54.4898 22.419 52.7302 25.5387C50.9706 28.6585 48.1728 31.0625 44.8238 32.3325Z" fill="#5C626D"/>
<path d="M0.386281 47.2466C0.498071 47.4425 0.683093 47.5859 0.900656 47.6454C1.11822 47.7049 1.3505 47.6756 1.54642 47.5638L10.6183 42.3814C10.7105 42.3206 10.7919 42.2447 10.859 42.1569C10.9287 42.0712 10.9802 41.9722 11.0104 41.866C11.0685 41.6396 11.0362 41.3996 10.9203 41.1966L2.4463 27.4654C2.32314 27.2841 2.13473 27.1573 1.92037 27.1115C1.706 27.0658 1.48223 27.1045 1.29574 27.2197C1.10924 27.3349 0.974415 27.5176 0.919385 27.7298C0.864355 27.942 0.893369 28.1672 1.00037 28.3585L9.01165 41.3412L0.699282 46.0864C0.504107 46.1989 0.361535 46.3843 0.302855 46.6018C0.244174 46.8193 0.274178 47.0511 0.386281 47.2466Z" fill="#5C626D"/>
<path d="M67.6482 39.4904L34.9456 58.3724C34.9023 58.4033 34.8618 58.438 34.8248 58.4762C34.7864 58.5088 34.7506 58.5444 34.7176 58.5825C34.6343 58.6884 34.5783 58.8131 34.5543 58.9457C34.5413 59.0249 34.5367 59.1054 34.5407 59.1856C34.5503 59.309 34.586 59.429 34.6453 59.5377L39.9689 68.5535C40.0442 68.6811 40.1515 68.7869 40.2803 68.8603C40.409 68.9337 40.5547 68.9722 40.7029 68.9719C40.8547 68.9722 41.0037 68.9314 41.1341 68.8537C41.3283 68.7391 41.469 68.552 41.5253 68.3337C41.5816 68.1153 41.5489 67.8835 41.4344 67.6893L36.5472 59.4118L52.9354 49.9487L64.4229 68.5645C64.546 68.7458 64.7345 68.8726 64.9488 68.9184C65.1632 68.9642 65.387 68.9255 65.5735 68.8103C65.7599 68.6951 65.8948 68.5124 65.9498 68.3002C66.0048 68.088 65.9758 67.8628 65.8688 67.6714L54.4086 49.0973L68.4987 40.9644C68.6942 40.8516 68.8368 40.6658 68.8953 40.4478C68.9537 40.2298 68.9232 39.9976 68.8104 39.8021C68.6976 39.6066 68.5118 39.464 68.2938 39.4055C68.0759 39.3471 67.8436 39.3776 67.6482 39.4904Z" fill="#5C626D"/>
<path d="M37.6979 17.1577C37.4724 17.1577 37.256 17.2473 37.0965 17.4068C36.937 17.5663 36.8474 17.7827 36.8474 18.0083V21.4104C36.8474 21.636 36.937 21.8524 37.0965 22.0119C37.256 22.1714 37.4724 22.261 37.6979 22.261H41.1001C41.3257 22.261 41.542 22.1714 41.7016 22.0119C41.8611 21.8524 41.9507 21.636 41.9507 21.4104V18.0083C41.9507 17.7827 41.8611 17.5663 41.7016 17.4068C41.542 17.2473 41.3257 17.1577 41.1001 17.1577H37.6979ZM40.2496 20.5599H38.5485V18.8588H40.2496V20.5599Z" fill="#5C626D"/>
<path d="M39.8924 7.95916C39.742 7.85791 39.5641 7.8054 39.3829 7.80874C39.2017 7.81209 39.0259 7.87114 38.8794 7.97787L35.9969 10.0294V9.5029C35.9969 9.27732 35.9072 9.06098 35.7477 8.90147C35.5882 8.74196 35.3719 8.65235 35.1463 8.65235H31.7441C31.5186 8.65235 31.3022 8.74196 31.1427 8.90147C30.9832 9.06098 30.8936 9.27732 30.8936 9.5029V13.742L29.3847 14.8307C29.2036 14.9634 29.0823 15.1623 29.0473 15.384C29.0122 15.6057 29.0662 15.8324 29.1976 16.0144C29.3289 16.1965 29.5269 16.3193 29.7484 16.3559C29.9698 16.3926 30.1968 16.3403 30.3799 16.2103L30.8902 15.8395V26.5138C30.8902 26.7394 30.9798 26.9557 31.1393 27.1152C31.2988 27.2747 31.5152 27.3643 31.7407 27.3643H47.0539C47.2795 27.3643 47.4959 27.2747 47.6554 27.1152C47.8149 26.9557 47.9045 26.7394 47.9045 26.5138V15.7467L48.624 16.2571C48.8079 16.3878 49.0361 16.4401 49.2586 16.4026C49.481 16.365 49.6794 16.2406 49.8101 16.0568C49.9408 15.8729 49.9932 15.6447 49.9556 15.4222C49.9181 15.1998 49.7937 15.0014 49.6098 14.8707L39.8924 7.95916ZM34.2958 10.3534V11.2397L32.5947 12.45V10.3534H34.2958ZM46.2034 25.6632H32.5947V14.6121L39.399 9.69852L46.2034 14.5373V25.6632Z" fill="#5C626D"/>
</svg>
