<svg width="86" height="123" viewBox="0 0 86 123" fill="none" xmlns="http://www.w3.org/2000/svg">
<path d="M42.7902 68.3003C42.8023 68.3411 42.8116 68.3827 42.8172 68.4251C45.5164 80.3117 55.567 79.1181 55.5965 79.1152C55.8038 79.0937 56.0111 79.1366 56.1838 79.2527L67.7178 86.9943C68.3702 87.432 69.148 87.5985 69.9286 87.5075C70.7062 87.417 71.4932 87.0673 72.1675 86.4728L81.3752 78.3554C81.5818 78.1729 81.7354 77.9649 81.8305 77.7439C81.9263 77.521 81.9667 77.2773 81.9466 77.0261C81.9255 76.7725 81.8482 76.5537 81.7209 76.3795C81.596 76.2081 81.413 76.0712 81.1793 75.9792L81.18 75.9779L66.7511 70.302C66.597 70.244 66.4626 70.142 66.3675 69.9974C66.3494 69.9698 60.0574 60.3521 58.2878 56.3205C56.7175 52.7426 54.5116 52.4031 54.5052 52.4019L54.5058 52.4004C54.4461 52.3899 54.3872 52.3736 54.3302 52.3505L40.506 46.7725L50.9176 61.2557L50.9154 61.2573C50.9615 61.3215 50.9986 61.3936 51.025 61.4737C51.2485 62.1524 51.0921 62.837 50.7294 63.4003C50.5177 63.7291 50.2338 64.0148 49.9157 64.2291C49.5886 64.45 49.2162 64.6004 48.838 64.6524C48.282 64.729 47.7344 64.5987 47.3085 64.1814L37.3139 57.3164C36.7681 56.9414 36.0532 56.9938 35.4515 57.3042C35.1806 57.444 34.9323 57.6358 34.7318 57.8649C34.5474 58.0752 34.407 58.3186 34.3336 58.5804C34.1642 59.1842 34.3591 59.925 35.1761 60.6796L42.4544 67.402L42.4531 67.4031C42.5711 67.5128 42.6561 67.6591 42.6913 67.834C42.7229 67.9922 42.7564 68.1466 42.7902 68.3003ZM41.2382 70.2845L30.5538 78.4578C29.4925 79.2696 28.2495 79.6194 27.1019 79.529C25.9544 79.4388 24.9008 78.9081 24.2183 77.9587L2.94591 48.3673C2.26359 47.4182 2.07726 46.2241 2.32668 45.065C2.57609 43.9059 3.26154 42.7804 4.32278 41.9686L21.5838 28.7644C22.6453 27.9524 23.8884 27.6026 25.0357 27.6932C26.1834 27.7836 27.237 28.3143 27.9193 29.2634L38.319 43.7301L55.178 50.533C55.7116 50.655 58.3575 51.4448 60.0784 55.3657C61.6513 58.9491 66.9803 67.1958 67.8934 68.6L82.1012 74.1893L82.102 74.1875C82.6163 74.3903 83.0351 74.7128 83.3408 75.1317C83.6445 75.5476 83.8281 76.0515 83.8744 76.6191C83.9207 77.1908 83.8245 77.754 83.5981 78.2808C83.3708 78.8099 83.0161 79.2959 82.5466 79.7101L73.3388 87.8275C72.313 88.7319 71.101 89.2655 69.8923 89.4064C68.6863 89.5471 67.489 89.2928 66.49 88.6224L55.2002 81.0446C53.329 81.1451 44.3034 81.0512 41.2382 70.2845ZM36.8224 45.163L36.8179 45.1567L26.2891 30.5105C25.8962 29.964 25.2877 29.6581 24.6242 29.6056C23.9609 29.5534 23.2432 29.7548 22.6319 30.2224L10.134 39.783L34.2687 73.3562L40.6177 68.4994L33.7513 62.1579C32.405 60.9141 32.13 59.5287 32.4717 58.3099C32.6357 57.725 32.9445 57.1863 33.3494 56.7244C33.5225 56.5265 33.7145 56.3431 33.9204 56.1761L32.3598 54.0052C32.2151 53.804 32.2803 53.501 32.5053 53.3289C32.7302 53.1568 33.0302 53.1805 33.1749 53.3817L34.7828 55.6185C35.4597 55.2766 36.2098 55.0993 36.9362 55.1455C36.9696 55.0409 37.037 54.9419 37.1343 54.8675C37.3592 54.6954 37.6592 54.719 37.8038 54.9202L38.214 55.4908C38.3307 55.5506 38.4452 55.6186 38.5563 55.6952L48.61 62.6002C48.6677 62.64 48.7181 62.6855 48.7617 62.7361C48.7852 62.7566 48.8091 62.7635 48.8302 62.7606C48.8732 62.7548 48.9255 62.7309 48.9799 62.6942C49.0434 62.6513 49.0992 62.5958 49.1391 62.5337C49.1711 62.4839 49.1911 62.4279 49.1927 62.371L36.8224 45.163ZM22.2494 41.9619C21.8616 41.4224 21.6481 40.7986 21.5965 40.1503C21.3613 40.0534 21.1355 39.9309 20.9235 39.783C20.6107 39.5652 20.334 39.2974 20.1069 38.9815C19.482 38.1123 19.3103 37.0234 19.5378 35.9662C19.7653 34.909 20.3921 33.883 21.3639 33.1395C22.3361 32.3959 23.4698 32.0751 24.5168 32.1573C25.5636 32.2398 26.5236 32.7253 27.1487 33.5947C27.3758 33.9106 27.5438 34.2615 27.6551 34.6336C27.7304 34.886 27.7787 35.1443 27.8003 35.4046C28.3867 35.6438 28.9034 36.0356 29.2912 36.5751C29.9162 37.4446 30.0879 38.5334 29.8605 39.5907C29.633 40.6479 29.0061 41.6739 28.034 42.4175C27.0619 43.1612 25.9281 43.482 24.8814 43.3995C23.8343 43.3173 22.8744 42.8313 22.2494 41.9619ZM21.7408 38.698C22.0082 37.7297 22.6106 36.8045 23.5064 36.1192C24.4021 35.434 25.4353 35.108 26.4112 35.1253C26.3361 34.8825 26.2204 34.6472 26.0616 34.4263C25.6294 33.8251 24.9659 33.489 24.2423 33.4321C23.5189 33.3753 22.7351 33.5971 22.0627 34.1115C21.3905 34.6257 20.9571 35.335 20.8 36.0654C20.6427 36.7962 20.7615 37.549 21.1937 38.1501C21.3524 38.371 21.5375 38.5534 21.7408 38.698ZM22.9423 39.0455C22.785 39.7763 22.9038 40.5291 23.3362 41.1305C23.7683 41.7317 24.4321 42.0675 25.1557 42.1245C25.8793 42.1815 26.6628 41.9599 27.3353 41.4455C28.0075 40.9313 28.4408 40.222 28.5981 39.4912C28.7553 38.7604 28.6366 38.0076 28.2044 37.4065C27.772 36.805 27.1082 36.4692 26.3847 36.4122C25.6611 36.3552 24.8775 36.5773 24.2053 37.0915C23.5328 37.6059 23.0995 38.3147 22.9423 39.0455ZM36.6123 53.2627C36.7569 53.4639 36.6917 53.7669 36.4668 53.939C36.2416 54.1113 35.9419 54.0874 35.7972 53.8862L34.903 52.6423C34.7584 52.4411 34.8233 52.1384 35.0485 51.9661C35.2735 51.794 35.5735 51.8176 35.7181 52.0188L36.6123 53.2627ZM19.52 44.4189C19.6648 44.6203 19.5994 44.9231 19.3744 45.0951C19.1495 45.2672 18.8497 45.2439 18.7049 45.0424L15.3322 40.3508C15.1874 40.1494 15.2528 39.8467 15.4778 39.6746C15.7027 39.5025 16.0025 39.5259 16.1473 39.7273L19.52 44.4189ZM27.2267 55.1395C27.3713 55.3407 27.3061 55.6437 27.0812 55.8158C26.8562 55.9879 26.5563 55.9642 26.4116 55.763L21.5412 48.988C21.3966 48.7868 21.4618 48.4838 21.6867 48.3117C21.9117 48.1396 22.2117 48.1633 22.3563 48.3645L27.2267 55.1395ZM37.1552 68.9508C37.2999 69.152 37.2347 69.455 37.0097 69.6271C36.7848 69.7992 36.4848 69.7755 36.3402 69.5743L29.2303 59.6841C29.0855 59.4826 29.1509 59.1799 29.3758 59.0078C29.6008 58.8357 29.9006 58.8591 30.0454 59.0605L37.1552 68.9508ZM9.04719 40.6143L5.91428 43.0109L30.0491 76.5841L33.182 74.1875L9.04719 40.6143ZM4.87117 43.903C4.54113 44.2945 4.32024 44.7493 4.22022 45.2141C4.07624 45.8843 4.18322 46.5738 4.57608 47.1203L25.8485 76.7117C26.2415 77.2585 26.85 77.5643 27.5134 77.6165C27.9736 77.6528 28.4598 77.5671 28.9188 77.355L4.87117 43.903Z" fill="#5C626D"/>
</svg>
