<svg width="62" height="68" viewBox="0 0 62 68" fill="none" xmlns="http://www.w3.org/2000/svg">
<path d="M40.1731 60.8321C35.2473 60.8321 30.6164 58.9085 27.1336 55.4157L5.50222 33.7237C-1.68775 26.5135 -1.68775 14.7816 5.50222 7.57137L8.23157 4.83448C8.5665 4.4986 9.10957 4.49846 9.4445 4.83448L18.0251 13.4392C18.1898 13.6044 18.2804 13.8297 18.2761 14.0634C18.2718 14.2969 18.1729 14.5187 18.0022 14.6777C16.1353 16.4165 15.7422 17.3919 15.674 17.8187C14.7918 23.3405 16.9881 29.686 21.6998 35.228C27.0052 41.4686 34.3739 45.3453 40.9302 45.3453C41.636 45.3453 42.3389 45.3004 43.0192 45.2118C43.4427 45.1568 44.4114 44.7836 46.145 42.9029C46.3034 42.7311 46.5247 42.6313 46.758 42.6268C46.9948 42.6212 47.2163 42.7132 47.3812 42.8786L55.9412 51.4627C56.2763 51.7986 56.2763 52.3432 55.9412 52.6789L53.212 55.4158C49.7296 58.9085 45.0987 60.8321 40.1731 60.8321ZM8.83811 6.65893L6.71515 8.78772C0.194046 15.3272 0.194046 25.9679 6.71515 32.5072L28.3465 54.1994C31.5054 57.3673 35.7055 59.1119 40.173 59.1119C44.6404 59.1119 48.8405 57.3673 51.9994 54.1994L54.122 52.0706L46.7861 44.714C45.4301 46.0614 44.265 46.7843 43.2401 46.9176C42.4869 47.0156 41.7098 47.0652 40.9303 47.0652C33.8857 47.0652 26.0167 42.957 20.3945 36.3437C15.3565 30.4178 13.0185 23.5663 13.9803 17.5462C14.1418 16.5357 14.8685 15.383 16.1956 14.0372L8.83811 6.65893Z" fill="#5C626D"/>
<path d="M17.4187 14.9075C17.1989 14.9075 16.9793 14.8232 16.8122 14.6556L8.23161 6.05088C7.90211 5.72045 7.89596 5.1866 8.21789 4.84858L12.2611 0.603466C12.4216 0.434882 12.6435 0.338836 12.8759 0.337402C13.1099 0.337402 13.3315 0.429148 13.494 0.595581L22.5914 9.90894C22.7717 10.0934 22.8596 10.3493 22.8311 10.6061C22.8027 10.8627 22.6606 11.0929 22.4443 11.2332C22.4199 11.2491 19.9714 12.8432 18.0024 14.6776C17.8376 14.8311 17.628 14.9075 17.4187 14.9075ZM10.0372 5.42887L17.45 12.8626C18.6314 11.8302 19.8546 10.9319 20.647 10.3768L12.8891 2.43466L10.0372 5.42887Z" fill="#5C626D"/>
<path d="M55.3354 52.9314C55.108 52.9314 54.8899 52.8408 54.729 52.6794L46.1689 44.0951C45.8431 43.7686 45.8328 43.2423 46.1455 42.9031C47.9662 40.9282 49.5421 38.4566 49.5578 38.432C49.6976 38.2119 49.9293 38.0673 50.1878 38.0389C50.4474 38.0102 50.704 38.1014 50.8877 38.2857L59.985 47.4087C60.3201 47.7446 60.3201 48.2892 59.985 48.6249L55.9418 52.6795C55.781 52.8408 55.5629 52.9314 55.3354 52.9314ZM47.9551 43.4537L55.3354 50.8549L58.1657 48.0167L50.4137 40.2428C49.8629 41.0433 48.9757 42.2715 47.9551 43.4537Z" fill="#5C626D"/>
<path d="M52.3031 35.6988C52.0835 35.6988 51.864 35.6148 51.6967 35.4468C51.3616 35.1109 51.3616 34.5663 51.6967 34.2306C55.0445 30.8731 56.8883 26.4092 56.8883 21.6612C56.8883 16.9132 55.0445 12.4492 51.6967 9.09174C44.785 2.16091 33.5395 2.16091 26.6283 9.09174C26.2934 9.42762 25.7503 9.42762 25.4154 9.09174C25.0805 8.75587 25.0805 8.21127 25.4154 7.87539C32.9955 0.274101 45.3294 0.273814 52.9094 7.87539C56.5815 11.5577 58.6037 16.4536 58.6037 21.6612C58.6037 26.8688 56.5815 31.7646 52.9094 35.447C52.742 35.6148 52.5225 35.6988 52.3031 35.6988Z" fill="#5C626D"/>
<path d="M47.249 30.6306C47.0296 30.6306 46.81 30.5466 46.6426 30.3787C46.3075 30.0429 46.3075 29.4983 46.6426 29.1624C50.767 25.0262 50.767 18.2964 46.6426 14.1604C42.0928 9.59802 35.6792 11.3603 31.5691 14.256C31.1815 14.5289 30.6466 14.4353 30.3742 14.0467C30.1018 13.6581 30.1953 13.1215 30.5829 12.8484C36.7119 8.53032 43.4919 8.56803 47.8554 12.944C52.6487 17.7508 52.6487 25.5721 47.8554 30.3789C47.6882 30.5466 47.4684 30.6306 47.249 30.6306Z" fill="#5C626D"/>
<path d="M41.9616 25.3282C41.7421 25.3282 41.5227 25.2443 41.3552 25.0763C41.0201 24.7404 41.0201 24.1958 41.355 23.8599C42.5641 22.6475 42.5641 20.6745 41.355 19.4622C40.1461 18.2497 38.1785 18.2498 36.9696 19.4622C36.6347 19.7982 36.0915 19.7979 35.7567 19.4622C35.4217 19.1263 35.4217 18.5817 35.7568 18.2458C37.6349 16.3626 40.6903 16.3629 42.568 18.2458C44.4458 20.1289 44.4458 23.1931 42.5681 25.0763C42.4006 25.2442 42.181 25.3282 41.9616 25.3282Z" fill="#5C626D"/>
<path d="M60.9981 60.8325H6.67704C6.20344 60.8325 5.81934 60.4474 5.81934 59.9724C5.81934 59.4975 6.20344 59.1123 6.67704 59.1123H60.9981C61.4717 59.1123 61.8558 59.4975 61.8558 59.9724C61.8558 60.4474 61.4717 60.8325 60.9981 60.8325Z" fill="#5C626D"/>
<path d="M52.4211 68H15.2541C14.7805 68 14.3964 67.6148 14.3964 67.1399C14.3964 66.665 14.7805 66.2798 15.2541 66.2798H52.4211C52.8947 66.2798 53.2788 66.665 53.2788 67.1399C53.2788 67.6148 52.8947 68 52.4211 68Z" fill="#5C626D"/>
</svg>
