<svg width="81" height="71" viewBox="0 0 81 71" fill="none" xmlns="http://www.w3.org/2000/svg">
<path d="M70.9622 42.4354C70.4371 42.4354 69.9028 42.4856 69.3765 42.5875C67.6757 42.9141 66.2223 43.7513 65.0598 45.0738C64.4448 45.7694 63.9846 46.5233 63.6447 47.2229C63.0681 46.6992 62.3632 46.1688 61.5379 45.7536C61.489 45.7284 61.4387 45.7165 61.3898 45.6927V35.3004C62.4306 35.4803 63.5839 35.6442 64.9064 35.6442C66.0001 35.6442 67.0502 35.5318 68.1135 35.3017L74.6877 33.8827C76.1227 33.5719 77.297 32.6011 77.8274 31.2866C78.2003 30.3634 78.2096 29.3729 77.871 28.459C78.9568 27.4989 79.4765 26.0031 79.1605 24.5404C79.1221 24.3592 79.0719 24.182 79.0084 24.0101C79.8019 23.3184 80.2992 22.3397 80.3811 21.2539C80.4671 20.11 80.0796 19.0123 79.3245 18.1923C79.5943 17.3618 79.5929 16.4559 79.3073 15.6121C78.7571 13.9841 77.1542 12.889 75.3199 12.889C75.0038 12.889 74.6864 12.9234 74.3796 12.9895L67.9191 14.3861C67.9865 12.5597 67.6585 10.1924 67.4483 9.27194C66.91 6.91522 64.749 5.20388 62.3103 5.20388C62.0021 5.20388 61.694 5.24885 61.3898 5.30307V4.35615C61.3898 2.42131 59.816 0.846191 57.8799 0.846191H22.2446C20.3098 0.846191 18.7347 2.41999 18.7347 4.35615V21.0132C18.2612 21.2817 17.7983 21.496 17.3765 21.5872C16.2087 21.8385 15.2234 21.771 13.9683 21.6256L13.7647 21.6018L9.56436 18.8946C9.3435 18.7517 9.0737 18.7015 8.81846 18.7584C8.56057 18.8139 8.33706 18.9686 8.19423 19.1908L0.15862 31.6555C-0.138947 32.1158 -0.00537245 32.7294 0.454863 33.027L4.70279 35.7659C4.98316 36.1243 5.26221 36.5237 5.56507 36.9615C6.69846 38.5988 8.10827 40.6394 10.7573 42.3454L16.4097 45.9916C17.112 46.4439 17.9147 46.6833 18.7347 46.6992V66.5144C18.7347 68.4506 20.3085 70.0244 22.2446 70.0244H57.8785C59.8001 70.0244 61.3634 68.4704 61.3845 66.5541C61.8659 66.8292 62.3579 67.1082 62.8657 67.3966C64.0229 68.0486 65.3375 68.7971 66.6957 69.5853C66.9788 69.7572 67.3068 69.8472 67.6427 69.8472C67.7577 69.8472 67.8741 69.8366 67.9931 69.8141C68.4428 69.7281 68.8422 69.4835 69.112 69.1304C70.0854 67.8819 71.027 66.6996 71.8787 65.6416C76.9505 59.2975 80.3018 55.1077 79.2861 49.8282C78.4463 45.4758 75.0236 42.4354 70.9622 42.4354ZM55.248 20.6059L57.9632 33.1632L54.7891 33.8483L52.0753 21.291L55.248 20.6059ZM65.5134 9.71234C65.848 11.1698 66.1178 14.3464 65.8083 15.3608C65.7065 15.6981 65.7885 16.0631 66.0279 16.3223C66.2659 16.5815 66.623 16.6952 66.9669 16.6198L74.7988 14.927C75.9256 14.6837 77.1013 15.2775 77.428 16.2456C77.6237 16.8248 77.5668 17.4345 77.268 17.9609C77.0193 18.4 77.1383 18.9567 77.547 19.253C78.1382 19.6828 78.4569 20.3745 78.4013 21.1032C78.3458 21.8319 77.9279 22.4654 77.2812 22.8C77.0312 22.9296 76.8474 23.1597 76.776 23.4335C76.7059 23.7072 76.7548 23.9982 76.9135 24.2323C77.0603 24.4531 77.1635 24.6965 77.219 24.957C77.4174 25.8775 76.9743 26.8231 76.1412 27.2555C75.8912 27.3851 75.7074 27.6153 75.6373 27.889C75.5672 28.1628 75.6161 28.4524 75.7748 28.6865C76.161 29.2658 76.2377 29.923 75.9877 30.5407C75.7021 31.2469 75.0593 31.7706 74.2685 31.9425L67.6942 33.3616C66.7698 33.5613 65.8573 33.6592 64.9064 33.6592C63.4357 33.6592 62.1344 33.4211 60.9878 33.2135C60.6307 33.1487 60.2908 33.0865 59.9668 33.0349L57.1101 19.819C58.0769 19.048 58.926 18.3457 59.783 17.0166C61.3329 14.6149 61.2787 9.90808 60.7815 7.44026L61.612 7.2604C63.3471 6.88877 65.1272 8.02349 65.5134 9.71234ZM9.32366 21.0992L12.052 22.8582L8.57247 28.258L5.09293 33.6578L2.36458 31.8976L9.32366 21.0992ZM11.8312 40.6777C9.51542 39.1846 8.28284 37.4032 7.19573 35.832C6.98942 35.5332 6.79236 35.2488 6.59795 34.9803L12.4448 25.9092L13.922 23.6173C15.2049 23.7641 16.4388 23.8183 17.7944 23.526C20.5875 22.9216 23.8766 19.5558 25.2719 17.461L25.9847 17.9199C27.495 18.8933 27.9553 20.9101 27.011 22.4138C26.2162 23.6808 24.1623 26.1168 23.226 26.6154C22.9152 26.7807 22.7155 27.0981 22.7009 27.4499C22.6864 27.8017 22.8596 28.135 23.1545 28.3254L29.8901 32.6673C30.8714 33.2994 31.2774 34.5254 30.8172 35.4591C30.5448 36.0066 30.0739 36.3968 29.492 36.5581C29.0054 36.6917 28.6959 37.1704 28.7752 37.669C28.8718 38.2827 28.7051 38.8791 28.3044 39.3486C27.9011 39.8208 27.3231 40.0919 26.7187 40.0919C26.5045 40.0919 26.2902 40.0588 26.0799 39.9914C25.8115 39.9067 25.5192 39.9385 25.2745 40.0826C25.0312 40.2254 24.8606 40.4675 24.8064 40.7439C24.7548 41.0044 24.6556 41.2504 24.5114 41.4739C24.0102 42.2529 23.0011 42.6099 22.123 42.3362C21.8545 42.2515 21.5622 42.2846 21.3189 42.4274C21.0755 42.5703 20.9049 42.811 20.8507 43.0887C20.6113 44.2948 19.6075 44.7233 18.8193 44.7233C18.3512 44.7233 17.8883 44.5858 17.4836 44.3252L11.8312 40.6777ZM59.4047 66.5144C59.4047 67.3569 58.7197 68.0406 57.8785 68.0406H22.2446C21.4035 68.0406 20.7185 67.3556 20.7185 66.5144V46.2535C21.4974 45.8567 22.1243 45.2219 22.4959 44.4059C23.9626 44.4919 25.379 43.7857 26.1778 42.5478C26.2783 42.3917 26.3683 42.2317 26.445 42.0651C26.5362 42.0717 26.6275 42.0743 26.7187 42.0743C27.9037 42.0743 29.0318 41.5506 29.8121 40.6367C30.4059 39.9424 30.7418 39.0735 30.7802 38.1755C31.5591 37.7788 32.1992 37.1374 32.5947 36.3386C33.4953 34.5148 32.7798 32.17 30.964 30.9996L25.4081 27.4182C26.7478 26.1737 28.1907 24.268 28.6906 23.4692C30.2088 21.0503 29.4775 17.8141 27.0586 16.2522L26.3444 15.792C25.4359 15.2074 24.1372 15.4904 23.5526 16.3963C22.9403 17.3472 21.8783 18.5573 20.7171 19.577V4.35615C20.7171 3.51503 21.4022 2.82997 22.2433 2.82997H57.8772C58.7197 2.82997 59.4034 3.51503 59.4034 4.35615V6.01591C58.9088 6.4854 58.6588 7.18898 58.8109 7.90446C59.2804 10.08 59.2434 14.1891 58.1139 15.9427C57.3918 17.0629 56.6949 17.6157 55.7294 18.3814L55.5707 18.5084L50.6867 19.5638C50.4301 19.6193 50.2053 19.774 50.0625 19.9962C49.9196 20.2171 49.8694 20.4856 49.9249 20.7421L53.0566 35.2382C53.1571 35.7038 53.5685 36.0212 54.0247 36.0212C54.0948 36.0212 54.1636 36.0146 54.235 35.9987L59.168 34.9327C59.2407 34.942 59.3267 34.9605 59.4021 34.9698V45.0487C58.4842 44.8794 57.5466 44.8662 56.6023 45.0487C51.9232 45.9493 49.1235 50.4221 50.0902 55.4503C50.9327 59.8172 54.2747 62.3855 59.4021 65.4088V66.5144H59.4047ZM70.3128 64.4222C69.4796 65.4564 68.5393 66.6361 67.64 67.8396C66.2844 67.0514 64.9857 66.3147 63.8391 65.6667C57.245 61.9279 52.8874 59.4588 52.0409 55.0733C51.2884 51.1547 53.4111 47.6805 56.9792 46.9941C57.3429 46.924 57.7106 46.8883 58.0676 46.8883C58.7197 46.8883 59.3664 47.0086 59.9985 47.2427C60.0091 47.248 60.0197 47.2507 60.0289 47.2559C60.2339 47.334 60.4402 47.4226 60.6413 47.5244C61.8077 48.1116 62.6898 49.0056 63.2255 49.651C63.4556 49.9301 63.8206 50.057 64.1764 49.9922C64.5334 49.9235 64.8217 49.6669 64.9328 49.3217C65.1881 48.5256 65.6774 47.371 66.5476 46.3844C67.4126 45.4005 68.4904 44.7775 69.7494 44.5355C70.1541 44.4575 70.5601 44.4191 70.9609 44.4191C74.1085 44.4191 76.6688 46.7441 77.3354 50.2038C78.1805 54.584 75.0554 58.4907 70.3128 64.4222Z" fill="#5C626D"/>
<path d="M47.9941 7.82764H32.1292C31.5816 7.82764 31.1373 8.272 31.1373 8.81952C31.1373 9.36705 31.5816 9.81141 32.1292 9.81141H47.9941C48.5416 9.81141 48.986 9.36705 48.986 8.81952C48.986 8.272 48.5429 7.82764 47.9941 7.82764Z" fill="#5C626D"/>
<path d="M42.5413 61.0586H37.5819C37.0343 61.0586 36.59 61.503 36.59 62.0505C36.59 62.598 37.0343 63.0424 37.5819 63.0424H42.5413C43.0888 63.0424 43.5332 62.598 43.5332 62.0505C43.5332 61.503 43.0888 61.0586 42.5413 61.0586Z" fill="#5C626D"/>
</svg>
